<svg width="159" height="30" viewBox="0 0 159 30" fill="none" xmlns="http://www.w3.org/2000/svg">
<path d="M53.1912 6.28906H61.6905C63.7391 6.28906 65.4722 6.6087 66.8898 7.24797C68.195 7.79668 69.3032 8.72801 70.0685 9.9192C70.7849 11.0959 71.152 12.4521 71.127 13.8295C71.1428 15.2133 70.7614 16.5725 70.028 17.7461C69.21 18.9858 68.0402 19.9529 66.6687 20.5232C65.166 21.2081 63.3032 21.5495 61.0803 21.5475H53.1912V6.28906ZM60.9932 17.6652C62.3734 17.6652 63.434 17.3206 64.175 16.6315C64.5507 16.2672 64.8442 15.8268 65.0359 15.3398C65.2276 14.8528 65.313 14.3304 65.2864 13.8077C65.3095 13.3226 65.2337 12.8377 65.0635 12.3828C64.8933 11.9278 64.6323 11.5123 64.2964 11.1614C63.6322 10.5014 62.6328 10.1703 61.2983 10.1683H58.6395V17.6652H60.9932Z" fill="#898989"/>
<path d="M83.8543 21.5225C82.733 21.2415 81.6604 20.7934 80.6725 20.1931V16.5754C81.535 17.2027 82.5061 17.6651 83.5367 17.9391C84.6643 18.2831 85.8355 18.4624 87.0143 18.4714C87.4212 18.4932 87.8277 18.4229 88.2036 18.266C88.4714 18.129 88.6052 17.9546 88.6052 17.774C88.6081 17.6732 88.5903 17.5728 88.5528 17.479C88.5153 17.3853 88.459 17.3003 88.3873 17.2292C88.1386 17.038 87.8468 16.9107 87.5374 16.8587L84.9222 16.2703C83.4236 15.9216 82.3599 15.4391 81.731 14.8226C81.4153 14.5042 81.1693 14.1236 81.0085 13.705C80.8477 13.2864 80.7757 12.839 80.797 12.3911C80.7865 11.5794 81.0822 10.7935 81.6252 10.19C82.2689 9.50902 83.0807 9.0097 83.9788 8.74229C85.1346 8.37901 86.3416 8.20553 87.5529 8.22859C88.6837 8.21797 89.8113 8.34977 90.9091 8.62087C91.7958 8.83097 92.6474 9.16865 93.4371 9.62336V13.048C92.6965 12.6183 91.9003 12.2925 91.071 12.0798C90.1724 11.8388 89.246 11.7174 88.3157 11.7186C86.95 11.7186 86.2671 11.9511 86.2671 12.416C86.2649 12.5195 86.2932 12.6214 86.3486 12.7089C86.4039 12.7965 86.4839 12.8657 86.5785 12.9079C86.9516 13.0666 87.3426 13.1795 87.7428 13.2442L89.9222 13.6364C91.3377 13.8855 92.3931 14.3214 93.0884 14.944C93.7837 15.5667 94.1324 16.4779 94.1345 17.6775C94.1456 18.3084 93.9913 18.9311 93.6871 19.4839C93.3829 20.0366 92.9393 20.5001 92.4004 20.8282C91.2526 21.5983 89.614 21.9822 87.4844 21.9802C86.2599 21.982 85.0401 21.8283 83.8543 21.5225Z" fill="#898989"/>
<path d="M99.284 21.0647C98.1188 20.5294 97.1368 19.6632 96.4602 18.5741C95.829 17.506 95.5057 16.284 95.5262 15.0436C95.5074 13.8038 95.848 12.5852 96.5069 11.5348C97.2092 10.4628 98.2089 9.61886 99.3836 9.10644C100.812 8.4841 102.359 8.1823 103.917 8.22226C106.096 8.22226 107.905 8.67992 109.343 9.59523V13.5896C108.796 13.2218 108.198 12.9355 107.569 12.7397C106.864 12.5172 106.128 12.4069 105.389 12.4128C104.038 12.4128 102.981 12.6598 102.217 13.1538C101.873 13.3454 101.587 13.6245 101.386 13.9628C101.186 14.3011 101.079 14.6865 101.076 15.0796C101.072 15.4728 101.173 15.8598 101.368 16.2013C101.563 16.5428 101.845 16.8265 102.186 17.0236C102.927 17.5238 104.002 17.7739 105.411 17.7739C106.138 17.7757 106.862 17.6708 107.559 17.4626C108.195 17.2803 108.806 17.0199 109.377 16.6874V20.5479C107.693 21.5301 105.77 22.0278 103.82 21.9863C102.258 22.0289 100.706 21.7137 99.284 21.0647Z" fill="#898989"/>
<path d="M114.77 21.0647C113.591 20.5267 112.592 19.6624 111.89 18.5741C111.228 17.5085 110.884 16.276 110.9 15.0218C110.879 13.7824 111.223 12.5642 111.89 11.5193C112.596 10.4586 113.591 9.6224 114.757 9.10957C117.622 7.9472 120.827 7.9472 123.692 9.10957C124.854 9.61848 125.845 10.4506 126.547 11.5068C127.21 12.5556 127.551 13.7753 127.528 15.0155C127.543 16.2685 127.203 17.5003 126.547 18.5679C125.853 19.6569 124.858 20.5219 123.683 21.0585C122.275 21.6624 120.759 21.9738 119.226 21.9738C117.694 21.9738 116.178 21.6624 114.77 21.0585V21.0647ZM121.392 17.198C121.661 16.92 121.87 16.5899 122.008 16.228C122.145 15.8661 122.206 15.48 122.189 15.0934C122.207 14.7104 122.146 14.3277 122.009 13.9696C121.872 13.6116 121.662 13.286 121.392 13.0137C121.099 12.7451 120.755 12.5381 120.381 12.4049C120.006 12.2718 119.609 12.2152 119.212 12.2385C118.816 12.2176 118.419 12.2754 118.045 12.4084C117.671 12.5415 117.327 12.7472 117.033 13.0137C116.764 13.2866 116.555 13.6123 116.418 13.9703C116.281 14.3283 116.22 14.7107 116.239 15.0934C116.222 15.4797 116.283 15.8655 116.419 16.2274C116.556 16.5892 116.765 16.9194 117.033 17.198C117.324 17.4699 117.667 17.6803 118.042 17.8167C118.416 17.9531 118.814 18.0127 119.212 17.9919C119.61 18.0151 120.009 17.9566 120.384 17.8201C120.759 17.6835 121.102 17.4718 121.392 17.198Z" fill="#898989"/>
<path d="M140.626 9.02841V13.742C139.975 13.3537 139.225 13.1644 138.468 13.1972C137.307 13.1972 136.41 13.5521 135.788 14.2557C135.165 14.9593 134.854 16.0521 134.854 17.534V21.544H129.514V8.79492H134.745V12.8422C135.035 11.3603 135.504 10.2675 136.152 9.56391C136.466 9.21791 136.851 8.94411 137.281 8.76137C137.711 8.57862 138.176 8.49129 138.643 8.50538C139.34 8.48635 140.028 8.66788 140.626 9.02841Z" fill="#898989"/>
<path d="M158.365 5.85303V21.5442H153.026V18.6799C152.623 19.6996 151.9 20.5607 150.965 21.1332C149.933 21.7213 148.759 22.0142 147.572 21.98C146.454 22.0061 145.354 21.6994 144.412 21.099C143.499 20.5059 142.771 19.6675 142.313 18.6799C141.813 17.5898 141.564 16.4014 141.585 15.2023C141.549 13.9591 141.814 12.7257 142.357 11.6065C142.855 10.5813 143.633 9.71792 144.601 9.11579C145.596 8.51297 146.741 8.20325 147.905 8.22227C150.445 8.22227 152.152 9.32646 153.026 11.5348V5.85303H158.365ZM152.242 17.1233C152.514 16.8554 152.727 16.5338 152.868 16.179C153.009 15.8241 153.074 15.4438 153.06 15.0622C153.072 14.6921 153.005 14.3237 152.864 13.9814C152.723 13.639 152.511 13.3304 152.242 13.0759C151.631 12.5786 150.867 12.3071 150.079 12.3071C149.292 12.3071 148.528 12.5786 147.917 13.0759C147.649 13.3362 147.438 13.6502 147.299 13.9972C147.16 14.3443 147.096 14.7167 147.111 15.0903C147.097 15.4673 147.163 15.8431 147.303 16.1932C147.444 16.5434 147.656 16.8602 147.926 17.1233C148.213 17.3892 148.549 17.5952 148.916 17.7294C149.282 17.8636 149.672 17.9232 150.062 17.9047C150.459 17.9266 150.857 17.8688 151.231 17.7346C151.605 17.6004 151.949 17.3925 152.242 17.1233Z" fill="#898989"/>
<path d="M33.5305 2.51245C30.9298 1.32182 28.1844 0.477141 25.3642 0C24.9783 0.689876 24.6291 1.39967 24.3181 2.1264C21.3141 1.67373 18.2593 1.67373 15.2553 2.1264C14.9441 1.39974 14.5949 0.689959 14.2092 0C11.3872 0.481171 8.63996 1.32785 6.03671 2.51868C0.868588 10.165 -0.532408 17.6214 0.16809 24.972C3.19467 27.2082 6.58228 28.9088 10.1837 30C10.9946 28.9093 11.7121 27.7523 12.3287 26.5411C11.1576 26.1037 10.0273 25.564 8.95078 24.9284C9.23409 24.7229 9.51118 24.5112 9.77892 24.3057C12.9112 25.7788 16.33 26.5425 19.7914 26.5425C23.2528 26.5425 26.6715 25.7788 29.8038 24.3057C30.0747 24.5268 30.3518 24.7385 30.632 24.9284C29.5534 25.5651 28.421 26.1058 27.2478 26.5442C27.8636 27.7548 28.5812 28.9109 29.3929 30C32.9973 28.9132 36.3875 27.2133 39.4147 24.9751C40.2366 16.4508 38.0106 9.06289 33.5305 2.51245ZM13.216 20.4514C11.264 20.4514 9.65128 18.6799 9.65128 16.5006C9.65128 14.3213 11.2079 12.5342 13.2098 12.5342C15.2117 12.5342 16.8119 14.3213 16.7777 16.5006C16.7434 18.6799 15.2054 20.4514 13.216 20.4514ZM26.3667 20.4514C24.4116 20.4514 22.8051 18.6799 22.8051 16.5006C22.8051 14.3213 24.3617 12.5342 26.3667 12.5342C28.3717 12.5342 29.9595 14.3213 29.9252 16.5006C29.891 18.6799 28.3561 20.4514 26.3667 20.4514Z" fill="#898989"/>
<path d="M75.6288 10.1527C77.0989 10.1527 78.2907 9.08217 78.2907 7.76164C78.2907 6.44111 77.0989 5.37061 75.6288 5.37061C74.1587 5.37061 72.9669 6.44111 72.9669 7.76164C72.9669 9.08217 74.1587 10.1527 75.6288 10.1527Z" fill="#898989"/>
<path d="M72.9639 11.7998C73.8071 12.1542 74.7126 12.3368 75.6273 12.3368C76.542 12.3368 77.4475 12.1542 78.2908 11.7998V21.613H72.9639V11.7998Z" fill="#898989"/>
</svg>
