<svg width="122" height="30" viewBox="0 0 122 30" fill="none" xmlns="http://www.w3.org/2000/svg">
<path d="M74.6385 23.1156H74.5982C74.6183 23.1156 74.6183 23.1358 74.6385 23.1358H74.6587L74.6385 23.1156ZM74.6385 23.1358C74.477 23.1358 74.0531 23.2165 73.6089 23.2165C72.2159 23.2165 71.7314 22.5705 71.7314 21.7226V16.1102H74.578C74.7395 16.1102 74.8606 15.9689 74.8606 15.767V12.7186C74.8606 12.5571 74.7193 12.4158 74.578 12.4158H71.7314V8.62035C71.7314 8.47904 71.6305 8.39828 71.469 8.39828H67.5928C67.4313 8.39828 67.3505 8.49922 67.3505 8.62035V12.5167C67.3505 12.5167 65.3923 13.0012 65.2711 13.0214C65.1298 13.0618 65.0491 13.1829 65.0491 13.3242V15.767C65.0491 15.9689 65.1904 16.1102 65.3519 16.1102H67.3303V22.0052C67.3303 26.3861 70.3788 26.8303 72.4582 26.8303C73.407 26.8303 74.5578 26.5274 74.7395 26.4265C74.8404 26.3861 74.901 26.265 74.901 26.1438V23.4588C74.901 23.2973 74.8 23.1762 74.6385 23.1358ZM117.155 19.1991C117.155 15.9487 115.843 15.5248 114.47 15.6661C113.4 15.7267 112.532 16.2717 112.532 16.2717V22.5907C112.532 22.5907 113.4 23.1963 114.712 23.2367C116.55 23.2771 117.155 22.6109 117.155 19.1991ZM121.516 18.9164C121.516 25.0739 119.517 26.8303 116.045 26.8303C113.097 26.8303 111.523 25.3363 111.523 25.3363C111.523 25.3363 111.462 26.164 111.361 26.265C111.301 26.3659 111.22 26.4063 111.099 26.4063H108.454C108.272 26.4063 108.111 26.265 108.111 26.1035L108.151 6.17756C108.151 6.01605 108.293 5.87474 108.454 5.87474H112.27C112.431 5.87474 112.572 6.01605 112.572 6.17756V12.9407C112.572 12.9407 114.046 11.9918 116.206 11.9918L116.186 11.9514C118.326 11.9514 121.516 12.759 121.516 18.9164ZM105.87 12.436H102.095C101.893 12.436 101.792 12.5773 101.792 12.7792V22.5301C101.792 22.5301 100.803 23.2165 99.45 23.2165C98.1176 23.2165 97.7138 22.6109 97.7138 21.2583V12.7388C97.7138 12.5773 97.5725 12.436 97.411 12.436H93.5752C93.4137 12.436 93.2724 12.5773 93.2724 12.7388V21.9245C93.2724 25.8612 95.4729 26.8504 98.5012 26.8504C101.005 26.8504 103.023 25.4776 103.023 25.4776C103.023 25.4776 103.124 26.1842 103.165 26.2852C103.205 26.3659 103.326 26.4467 103.447 26.4467H105.85C106.052 26.4467 106.153 26.3054 106.153 26.1438L106.193 12.7388C106.213 12.5773 106.052 12.436 105.87 12.436ZM63.3532 12.4158H59.5376C59.3761 12.4158 59.2348 12.5773 59.2348 12.7792V25.942C59.2348 26.3054 59.4771 26.4265 59.7799 26.4265H63.2321C63.5955 26.4265 63.6763 26.265 63.6763 25.942V12.7186C63.6561 12.5571 63.5148 12.4158 63.3532 12.4158ZM61.4555 6.33907C60.0827 6.33907 58.9724 7.42924 58.9724 8.82224C58.9724 10.195 60.0625 11.3054 61.4555 11.3054C62.8082 11.3054 63.8983 10.2152 63.8983 8.82224C63.8983 7.44943 62.8082 6.33907 61.4555 6.33907ZM91.0517 5.89493H87.2563C87.0948 5.89493 86.9534 6.03624 86.9534 6.19775V13.5261H81.0181V6.19775C81.0181 6.03624 80.8767 5.89493 80.7152 5.89493H76.8996C76.7381 5.89493 76.5968 6.03624 76.5968 6.19775V26.1237C76.5968 26.2852 76.7583 26.4265 76.8996 26.4265H80.7152C80.8767 26.4265 81.0181 26.2852 81.0181 26.1237V17.6042H86.9534L86.9131 26.1237C86.9131 26.2852 87.0544 26.4265 87.2159 26.4265H91.0315C91.193 26.4265 91.3343 26.2852 91.3343 26.1237V6.19775C91.3545 6.03624 91.2132 5.89493 91.0517 5.89493ZM57.1958 14.7172V25.0133C57.1958 25.0739 57.1756 25.2152 57.0949 25.2354C57.0949 25.2354 54.8539 26.8303 51.1595 26.8303C46.6978 26.8303 41.3883 25.4373 41.3883 16.2112C41.3883 6.9851 46.0114 5.08739 50.5336 5.10758C54.4502 5.10758 56.0249 5.99586 56.2671 6.15737C56.3277 6.25831 56.3681 6.31888 56.3681 6.39963L55.6413 9.60958C55.6413 9.77109 55.4798 9.97297 55.2779 9.91241C54.6319 9.71052 53.6628 9.32695 51.3815 9.32695C48.7369 9.32695 45.9105 10.0739 45.9105 16.0295C45.9105 21.9649 48.5956 22.6715 50.5336 22.6715C52.1891 22.6715 52.7745 22.4696 52.7745 22.4696V18.3511H50.1299C49.928 18.3511 49.7867 18.2098 49.7867 18.0483V14.7374C49.7867 14.5759 49.928 14.4346 50.1299 14.4346H56.8526C57.0545 14.4144 57.1958 14.5557 57.1958 14.7172Z" fill="#898989"/>
<path fill-rule="evenodd" clip-rule="evenodd" d="M15.749 0C7.24971 0 0.365479 6.88423 0.365479 15.3835C0.365479 22.187 4.76654 27.9407 10.8836 29.9797C11.6508 30.1008 11.9536 29.6567 11.9536 29.2529C11.9536 28.8895 11.9334 27.6782 11.9334 26.3862C8.07743 27.0928 7.06801 25.4373 6.76519 24.5894C6.58349 24.1453 5.83652 22.7725 5.1905 22.4091C4.64541 22.1264 3.87825 21.3997 5.17031 21.3795C6.38161 21.3593 7.24971 22.4898 7.53235 22.9542C8.92534 25.2758 11.1259 24.6298 12.0142 24.226C12.1555 23.2368 12.5592 22.5504 13.0034 22.1668C9.59156 21.7832 5.99803 20.4508 5.99803 14.576C5.99803 12.9004 6.60368 11.5074 7.57272 10.4374C7.41122 10.0538 6.88632 8.47911 7.73423 6.35933C7.73423 6.35933 9.02628 5.95557 11.9738 7.93403C13.2053 7.59083 14.5175 7.40913 15.8096 7.40913C17.1218 7.40913 18.4139 7.59083 19.6454 7.93403C22.5929 5.93538 23.8647 6.35933 23.8647 6.35933C24.7126 8.47911 24.1676 10.0538 24.0262 10.4374C25.0155 11.5074 25.6009 12.8802 25.6009 14.576C25.6009 20.471 22.0074 21.7832 18.5754 22.1668C19.1407 22.6513 19.6252 23.5598 19.6252 25.0134C19.6252 27.0726 19.605 28.728 19.605 29.2327C19.605 29.6365 19.8876 30.121 20.6548 29.9595C26.9132 27.8397 31.1325 21.9649 31.1325 15.3633C31.1325 6.88423 24.2483 0 15.749 0Z" fill="#898989"/>
</svg>
