<?xml version="1.0" encoding="utf-8"?>
<!-- Generator: Adobe Illustrator 26.3.1, SVG Export Plug-In . SVG Version: 6.00 Build 0)  -->
<svg version="1.1" id="Layer_1" xmlns="http://www.w3.org/2000/svg" xmlns:xlink="http://www.w3.org/1999/xlink" x="0px" y="0px"
	 viewBox="0 0 580 820" style="enable-background:new 0 0 580 820;" xml:space="preserve">
<style type="text/css">
	.st0{fill-rule:evenodd;clip-rule:evenodd;fill:#5573F7;}
	.st1{fill-rule:evenodd;clip-rule:evenodd;fill:#FFC300;}
	.st2{fill-rule:evenodd;clip-rule:evenodd;fill:#FFA7E9;}
	.st3{fill:#FF8059;}
	.st4{fill-rule:evenodd;clip-rule:evenodd;fill:#989EFF;}
	.st5{fill:#91C342;}
	.st6{fill-rule:evenodd;clip-rule:evenodd;fill:#92C9FF;}
</style>
<path class="st6" d="M177.89,731.73c-16.79-9.85-34.09-30.11-31.27-49.83c5.04-35.3,12.46-40.29,15.61-49.54
	c1.07-3.14,3.32-4.65,4.58-9.16c1.7-6.08,20.75-6.83,43.37-9.26c28.93-3.1,64.71-6.94,81.1-21.04
	c32.28-27.77,55.55-54.8,69.06-70.56c2.19,17.49,2.09,36.75,2.01,54c-0.09,18.29-0.17,34.31,2.49,43.58
	c3.25,8.76,10.66,34.68,14.26,68.31c3.2,29.87-36.04,49.5-74.37,58.1c-9.64,3.32-22.42,10.05-22.42,22.49c0,0,0.99,16.43,7.69,27.67
	s0.45,21.65-13.29,21.65c-13.74,0-19.15-5.2-14.78-17.69c4.37-12.49,18.75-35.16,5.11-41.87
	C204.65,747.5,177.89,731.73,177.89,731.73z"/>
</svg>
