<?xml version="1.0" encoding="utf-8"?>
<!-- Generator: Adobe Illustrator 26.3.1, SVG Export Plug-In . SVG Version: 6.00 Build 0)  -->
<svg version="1.1" id="Layer_1" xmlns="http://www.w3.org/2000/svg" xmlns:xlink="http://www.w3.org/1999/xlink" x="0px" y="0px"
	 viewBox="0 0 580 820" style="enable-background:new 0 0 580 820;" xml:space="preserve">
<style type="text/css">
	.st0{fill-rule:evenodd;clip-rule:evenodd;fill:#5573F7;}
	.st1{fill-rule:evenodd;clip-rule:evenodd;fill:#FFC300;}
	.st2{fill-rule:evenodd;clip-rule:evenodd;fill:#FFA7E9;}
	.st3{fill:#FF8059;}
</style>
<path class="st3" d="M134.08,646.17l12.35-104.67c108.78,2.05,129.27,64.65,188.79,79.02c47.62,11.49,90.31-0.68,105.7-8.21
	l1.03,12.31c0.68,0.34,2.26,1.64,3.08,4.1c0.82,2.46-1.03,3.08-2.05,3.08v6.16c4.1,1.03,4.1,3.08,4.1,6.16
	c0,2.46-3.42,6.5-5.13,8.21c1.37,13,0.41,42.08-14.37,54.39c-18.47,15.39-58.49,4.1-75.94,11.29
	c-17.45,7.18-20.52,29.76-52.34,33.87c-31.81,4.1-43.1-17.45-56.44-28.73c-13.34-11.29-52.34-14.37-85.18-26.68
	C131.41,686.61,131.34,657.81,134.08,646.17z"/>
</svg>
