<?xml version="1.0" encoding="utf-8"?>
<!-- Generator: Adobe Illustrator 26.3.1, SVG Export Plug-In . SVG Version: 6.00 Build 0)  -->
<svg version="1.1" id="Layer_1" xmlns="http://www.w3.org/2000/svg" xmlns:xlink="http://www.w3.org/1999/xlink" x="0px" y="0px"
	 viewBox="0 0 580 820" style="enable-background:new 0 0 580 820;" xml:space="preserve">
<style type="text/css">
	.st0{fill-rule:evenodd;clip-rule:evenodd;fill:#5573F7;}
	.st1{fill-rule:evenodd;clip-rule:evenodd;fill:#FFC300;}
	.st2{fill-rule:evenodd;clip-rule:evenodd;fill:#FFA7E9;}
	.st3{fill:#FF8059;}
	.st4{fill-rule:evenodd;clip-rule:evenodd;fill:#989EFF;}
	.st5{fill:#91C342;}
</style>
<path class="st5" d="M317.34,820c21.62,0,5.42-32.59,5.42-32.59c-1.95-4.02-4.98-23,7.56-34.84c7.66-7.24,16.63-9.01,25.31-10.73
	c5.52-1.09,10.92-2.16,15.8-4.6c9.2-4.6,14.42-14.63,16.29-20.21c-0.24,0.04-0.49,0.08-0.74,0.12c2.22-5.98-1.2-12.61-6.22-17.21
	c-14.15-12.95-28.57-27.37-31.09-31.67c-1.25-2.14,1.29-12.31,1.47-15.73c0.17-3.37,1.36-7.97-2.83-10.17
	c-1.91-0.76-4.8-1.76-6.59-0.71c-1.48,0.87-2.88,1.69-4.14,1.38c-2.23-0.56-0.91,1.22-7.25-11c-0.23-1.63-3.34-5.85-13.93-9.75
	c-38.32-14.63-43.2,28.56-43.2,36.93s-6.97,13.24-20.2,11.84c-10.59-1.11-12.77,3.72-12.54,6.27c0,2.23-22.6,7.3-33.28,9.39
	l0.53,19.87c3.45,34.05,29.29,42.77,52.96,43.81c4.32,0.98,9.12,3.1,10.44,7.05c2.79,8.36,0,18.81-2.79,24.38
	c-2.79,5.57-4.88,13.24,9.75,13.24c11.12,0,9.36-8.46,7.88-15.58c-0.47-2.24-0.91-4.35-0.91-6.02c0-1.08-0.17-2.47-0.35-4.05
	c-1.03-8.65-2.74-22.91,18.47-21.73c0.75,0.04,1.46,0.05,2.12,0.03c7.57,1.53,9.78,7.08,9.73,10.42
	C314.39,797.45,295.72,820,317.34,820z"/>
</svg>
