<svg width="10" height="13" viewBox="0 0 10 13" fill="none" xmlns="http://www.w3.org/2000/svg">
<path d="M2.704 6.304C4.096 6.304 5.088 5.344 5.088 3.472C5.088 1.6 4.096 0.639999 2.704 0.639999C1.312 0.639999 0.32 1.6 0.32 3.472C0.32 5.344 1.312 6.304 2.704 6.304ZM2.704 5.44C1.936 5.44 1.408 4.88 1.408 3.872V3.072C1.408 2.064 1.936 1.504 2.704 1.504C3.472 1.504 4 2.064 4 3.072V3.872C4 4.88 3.472 5.44 2.704 5.44ZM5.6 5.632H6.752L9.312 0.832H8.16L5.6 5.632ZM0.288 12H1.44L4 7.2H2.848L0.288 12ZM6.896 12.192C8.288 12.192 9.28 11.232 9.28 9.36C9.28 7.488 8.288 6.528 6.896 6.528C5.504 6.528 4.512 7.488 4.512 9.36C4.512 11.232 5.504 12.192 6.896 12.192ZM6.896 11.328C6.128 11.328 5.6 10.768 5.6 9.76V8.96C5.6 7.952 6.128 7.392 6.896 7.392C7.664 7.392 8.192 7.952 8.192 8.96V9.76C8.192 10.768 7.664 11.328 6.896 11.328Z" fill="#292929"/>
</svg>
