<?xml version="1.0" encoding="utf-8"?>
<!-- Generator: Adobe Illustrator 26.3.1, SVG Export Plug-In . SVG Version: 6.00 Build 0)  -->
<svg version="1.1" id="Layer_1" xmlns="http://www.w3.org/2000/svg" xmlns:xlink="http://www.w3.org/1999/xlink" x="0px" y="0px"
	 viewBox="0 0 580 820" style="enable-background:new 0 0 580 820;" xml:space="preserve">
<style type="text/css">
	.st0{fill-rule:evenodd;clip-rule:evenodd;fill:#5573F7;}
	.st1{fill-rule:evenodd;clip-rule:evenodd;fill:#FFC300;}
	.st2{fill-rule:evenodd;clip-rule:evenodd;fill:#FFA7E9;}
</style>
<path class="st2" d="M224,638.81l8.53-106.8c5.91,20.43,33.47,61.34,73.7,71.39c40.23,10.05,61.88,31.58,67.67,41.09l7.32,89.89
	c0.99,12.15-5.21,23.99-17.04,27.47c-17.57,5.17-42.66,8.03-68.16-0.99c-9.93-3.51-19.29-7.86-27.87-12.55
	c-26.47-10.8-37.61,1.56-46.47,11.4c-1.56,1.73-3.04,3.38-4.53,4.81c-10.2,9.83-15.32-4.1-9.17-14.86
	C220.16,713.01,224,638.81,224,638.81z M206.15,782.15c-8.27,8.98-14.83,20.21-5.47,25.59c9.63,5.53,13.42-8.2,14.56-21.59
	C215.67,780.92,209.72,778.27,206.15,782.15z"/>
</svg>
