<?xml version="1.0" encoding="utf-8"?>
<!-- Generator: Adobe Illustrator 26.3.1, SVG Export Plug-In . SVG Version: 6.00 Build 0)  -->
<svg version="1.1" id="Layer_1" xmlns="http://www.w3.org/2000/svg" xmlns:xlink="http://www.w3.org/1999/xlink" x="0px" y="0px"
	 viewBox="0 0 580 820" style="enable-background:new 0 0 580 820;" xml:space="preserve">
<style type="text/css">
	.st0{fill-rule:evenodd;clip-rule:evenodd;fill:#5573F7;}
	.st1{fill-rule:evenodd;clip-rule:evenodd;fill:#FFC300;}
	.st2{fill-rule:evenodd;clip-rule:evenodd;fill:#FFA7E9;}
	.st3{fill:#FF8059;}
	.st4{fill-rule:evenodd;clip-rule:evenodd;fill:#989EFF;}
</style>
<path class="st4" d="M261.16,635.63v80.22c0,0,0,0,0,0c0,0,0,0,0,0c0.1,0.67,0.22,1.42,0.34,2.25c1.29,8.43,3.71,24.21,2.88,33.27
	c-0.42,4.63-3.04,8.94-5.74,13.41c-4.56,7.53-9.39,15.5-4.43,26.13c7.91,16.95,36.15,23.73,35.02,7.91
	c-0.27-3.8-2.03-8.8-4.03-14.49c-6.34-18-15.09-42.87,13.24-58.32c5.94-3.24,8.92-5.65,9.7-7.43c0.76-1.01,1.29-1.96,1.6-2.74
	v-48.58c-0.75-3.39-5.42-10.85-18.08-13.56C279.01,651,265.68,640.53,261.16,635.63z"/>
</svg>
