<svg width="212" height="337" viewBox="0 0 212 337" fill="none" xmlns="http://www.w3.org/2000/svg">
<path fill-rule="evenodd" clip-rule="evenodd" d="M83.411 237.031C83.411 237.031 83.411 253.626 83.411 257.939C83.411 262.252 84.7269 269.16 93.28 274.423C96.46 276.251 99.1648 276.543 99.4572 278.627C99.7131 280.71 97.0814 285.499 96.9717 286.193C96.862 286.888 97.3738 289.775 99.8958 290.433C102.418 291.054 103.99 290.287 106 291.054C108.01 291.822 109.07 291.53 108.157 295.55C107.279 299.571 103.149 310.208 109.363 310.208C115.577 310.208 109.911 295.404 113.091 288.24C114.699 285.023 111.227 283.013 113.091 278.956C114.59 277.201 122.814 273.4 125.263 268.21C127.712 263.019 128.333 259.437 128.406 254.649C128.479 249.861 115.028 257.866 107.243 254.503C99.4572 251.14 102.82 241.746 94.9248 235.752C87.0296 229.757 83.411 237.031 83.411 237.031Z" fill="#FFFBC1"/>
</svg>
