<?xml version="1.0" encoding="utf-8"?>
<!-- Generator: Adobe Illustrator 26.3.1, SVG Export Plug-In . SVG Version: 6.00 Build 0)  -->
<svg version="1.1" id="Layer_1" xmlns="http://www.w3.org/2000/svg" xmlns:xlink="http://www.w3.org/1999/xlink" x="0px" y="0px"
	 viewBox="0 0 580 820" style="enable-background:new 0 0 580 820;" xml:space="preserve">
<style type="text/css">
	.st0{fill-rule:evenodd;clip-rule:evenodd;fill:#FFC300;}
	.st1{fill-rule:evenodd;clip-rule:evenodd;fill:#FFA7E9;}
	.st2{fill:#FF8059;}
	.st3{fill-rule:evenodd;clip-rule:evenodd;fill:#989EFF;}
	.st4{fill:#91C342;}
	.st5{fill-rule:evenodd;clip-rule:evenodd;fill:#92C9FF;}
	.st6{fill-rule:evenodd;clip-rule:evenodd;fill:#5573F7;}
</style>
<path class="st6" d="M306.1,722.14c-1.77,2.54-11.06,9.13-16.35,9.94c-2.37,1.2-4.7,2.85-6.16,5.1c-1.74,2.69-10.06,3.43-13.34-1.38
	c-1.27-1.87-2.81-2.9-4.32-3.58c-3.61-0.56-6.95-0.16-7.02-1.71c-0.03-0.77-0.23-6.51-0.27-9.63l0,0l0,0
	c-0.23-15.86-0.85-52.58-4.17-71.02c1.09-2.39,20.81-10.39,34.66,5.38c4.82,5.49,8.2,12.37,10.94,17.95
	c2.47,5.04,4.02,12.72,6.04,13.65V722.14z M371.12,711.08c-0.1,2.64-3.21,4.61-3.21,4.61l0,0c-3.05,3.97-10.04,15.63-9.93,19.47
	c0.02,0.53,0.03,1.09,0.04,1.67c0.14,6.66,0.34,16.28,7.13,24.03c7.37,8.42,2.01,19.87-15.8,20.39
	c-17.81,0.52-17.5-13.44-14.82-19.49c0.52-1.18,1.47-2.67,2.56-4.4c4.53-7.15,11.58-18.31,1.5-27.6c-6.27-5.77-7.91-9.8-7.95-12.24
	l0-0.01c-0.04-1.37,0.32-7.75,0.77-15.89l0,0c0.8-14.4,1.91-34.33,1.69-41.89c3.84-0.11,8.09,3.06,12.85,6.6
	c6.9,5.14,14.85,11.06,24.12,8.92C370.06,675.22,371.22,708.44,371.12,711.08z M283.8,748.28c-1.32-4.49-7.35-5.61-9.02-1.24
	c-0.16,0.41-0.31,0.82-0.46,1.24c-2.71,7.6-2.03,17.27,6.09,15.2c7.43-1.9,5.8-7.27,3.91-13.46
	C284.15,749.44,283.97,748.86,283.8,748.28z"/>
</svg>
