<?xml version="1.0" encoding="UTF-8"?><svg id="Layer_1" xmlns="http://www.w3.org/2000/svg" viewBox="0 0 153.64 245.67"><defs><style>.cls-1{fill:#5573f7;fill-rule:evenodd;}</style></defs><path class="cls-1" d="M79.55,219.93h0c-.5-2.82-.87-5.5-1.33-10.5,.7-.34,1.02-2.8,1.82-4.5,.88-1.88,1.97-4.2,3.59-6.09,4.66-5.41,11.7-4.62,12.12-3.85-.88,6.13-.44,19.82-.27,25.06h0c.03,1.03,.06,2.93,.06,3.18,0,.51-1.19,.43-2.46,.67-.52,.25-1.05,.61-1.47,1.25-1.09,1.64-4.04,1.52-4.71,.66-.55-.72-1.41-1.23-2.27-1.59-1.89-.19-3.96,0-4.63-.81-.12-.81-.27-2.36-.46-3.46h0Zm-12.86,7.72c0-1.03-.1-2.31-.23-3.95-.14-1.8,.11-2.86,0-5.68,2.45,.49,4.5-1.13,6.27-2.53,1.22-.97,2.32-1.83,3.33-1.83,0,1.99,.45,7.22,.77,11h0c.18,2.14,.32,3.81,.32,4.17h0c0,.65-.39,1.72-2,3.28-2.58,2.52-.64,5.4,.61,7.24,.3,.45,.56,.83,.71,1.14,.75,1.57,.94,5.24-3.75,5.24s-6.18-2.97-4.31-5.24c1.72-2.09,1.7-4.62,1.69-6.37,0-.15,0-.3,0-.44,0-1.01-1.93-4.02-2.76-5.04h0c-.29-.36-.5-.61-.53-.7-.07-.09-.11-.19-.11-.29Zm22.45,1.36c-.22,.73-.41,1.36,.46,1.58,.95,.24,1.03-.89,.71-1.78-.02-.05-.04-.1-.05-.15-.2-.51-.9-.38-1.06,.15-.02,.07-.04,.14-.06,.2Z"/></svg>