<?xml version="1.0" encoding="utf-8"?>
<!-- Generator: Adobe Illustrator 26.3.1, SVG Export Plug-In . SVG Version: 6.00 Build 0)  -->
<svg version="1.1" id="Layer_1" xmlns="http://www.w3.org/2000/svg" xmlns:xlink="http://www.w3.org/1999/xlink" x="0px" y="0px"
	 viewBox="0 0 580 820" style="enable-background:new 0 0 580 820;" xml:space="preserve">
<style type="text/css">
	.st0{fill-rule:evenodd;clip-rule:evenodd;fill:#5573F7;}
	.st1{fill-rule:evenodd;clip-rule:evenodd;fill:#FFC300;}
</style>
<path class="st1" d="M213.91,683.45l3.95-35.39c25.24-10.46,54.51,4.12,91.68-29.14c28.27-31.86,46.08-52.77,62.35-52.84l0.75,93.38
	c0.97,17.71-3.34,30.03-7.05,37.17c-0.07,0.29-0.14,0.6-0.23,0.94l0,0c-1.21,4.99-3.7,15.22,0.82,27.67
	c4.06,11.19-5.79,26.46-10.07,27.85c-2.92,0.95-4.51-1.44-7.09-5.34c-1.2-1.82-2.62-3.96-4.5-6.25
	c-10.65-13.01-39.85-15.02-53.63-13.13c-4.28,0.73-8.41,1.41-12.27,2.05c-0.08,0.01-0.17,0.03-0.25,0.04
	C246.73,740.27,211.15,714.93,213.91,683.45z M332.36,777.39L332.36,777.39c-3.92,12.97-7.33,24.22,8.12,28.19
	c16.88,4.34,18.29-15.92,12.67-31.84c-2.74-7.74-6.3-15.15-9.31-20.76c-1.48-2.76-5.53-1.89-6.04,1.2
	c-0.94,5.69-2.37,12.79-4.34,19.56C333.09,774.97,332.72,776.19,332.36,777.39z"/>
</svg>
