<svg width="20" height="20" viewBox="0 0 20 20" fill="none" xmlns="http://www.w3.org/2000/svg">
<g clip-path="url(#clip0_2995_128697)">
<rect width="20" height="20" rx="10" fill="#3356F2"/>
<path fill-rule="evenodd" clip-rule="evenodd" d="M11.5383 6.53846V8.92308H8.46135V6.53846C8.46135 5.68879 9.15014 5 9.99981 5C10.8495 5 11.5383 5.68879 11.5383 6.53846ZM7.46135 6.53846C7.46135 5.13651 8.59786 4 9.99981 4C11.4018 4 12.5383 5.13651 12.5383 6.53846V8.92308V9.07692H13.2306H14.2306V10.0769V14V15H13.2306H6.76904H5.76904V14V10.0769V9.07692H6.76904H7.46135V8.92308V6.53846ZM6.76904 14V10.0769H13.2306V14H6.76904Z" fill="white"/>
</g>
<defs>
<clipPath id="clip0_2995_128697">
<rect width="20" height="20" rx="10" fill="white"/>
</clipPath>
</defs>
</svg>

