<svg viewBox="0 0 1040 342" fill="none" xmlns="http://www.w3.org/2000/svg">
<path fill-rule="evenodd" clip-rule="evenodd" d="M82.2042 147.678L82.2568 147.695L82.3739 147.73C87.4079 149.135 92.4419 150.411 97.3881 151.535C97.4876 151.5 97.593 151.482 97.7042 151.506C97.8681 151.541 114.205 155.012 127.188 156.493C127.294 156.505 127.387 156.551 127.469 156.616C135.418 157.47 143.227 157.904 150.748 157.904C157.743 157.904 164.65 157.529 171.265 156.791C178.558 155.978 185.624 154.684 192.291 152.957H192.296C192.296 152.957 192.32 152.946 192.337 152.946C192.525 152.899 211.192 148.058 222.407 140.542C222.477 140.495 222.559 140.466 222.641 140.454C227.212 137.691 231.439 134.618 235.249 131.282C255.262 113.745 264.148 88.9554 260.255 61.4791C257.235 40.1432 242.859 20.7916 221.798 9.72263C209.541 3.26624 196.283 0 182.404 0C168.444 0 154.735 3.30722 141.658 9.82214C125.789 17.6834 113.567 29.683 105.349 45.4874C98.8163 58.0431 94.8126 73.1041 93.437 90.2958C93.437 90.3095 93.4383 90.3225 93.4396 90.3355C93.4422 90.3615 93.4448 90.3875 93.437 90.4187C93.4136 90.6061 92.2897 101.862 93.2907 118.791C93.2907 118.873 93.2848 118.949 93.2555 119.025C93.2907 119.587 93.3316 120.207 93.3668 120.728C93.4721 120.705 93.5775 120.693 93.6828 120.728L93.6836 120.728C93.854 120.783 106.767 124.892 122.119 126.464C121.902 124.463 121.703 122.484 121.545 120.535L121.577 120.544C121.605 120.552 121.632 120.56 121.662 120.564C120.223 102.506 121.147 93.9718 121.458 91.8236C121.446 91.8236 121.434 91.8207 121.423 91.8177L121.423 91.8177L121.412 91.8152L121.406 91.814C121.403 91.8134 121.4 91.8129 121.397 91.8125C121.394 91.8121 121.391 91.8119 121.387 91.8119C122.511 78.6942 125.461 67.4731 130.173 58.4178C135.67 47.8464 143.502 40.1549 154.108 34.8985C163.257 30.3386 172.769 28.0265 182.398 28.0265C192.027 28.0265 200.603 30.204 208.774 34.4946C221.892 41.39 230.777 52.9448 232.545 65.401C235.103 83.4707 229.659 98.9707 216.811 110.233C211.221 115.132 204.296 119.206 196.207 122.361H196.195C194.462 123.251 182.351 128.8 147.301 129.801C147.348 129.819 147.394 129.836 147.447 129.86C147.273 129.857 147.098 129.851 146.921 129.845L146.92 129.845C146.741 129.839 146.562 129.833 146.382 129.83H146.253H146.235C146.235 129.83 146.206 129.824 146.189 129.819C138.497 129.608 130.478 128.9 122.248 127.705V127.653C107.386 126.16 94.7365 122.285 93.4428 121.881L91.7688 121.354C91.6692 121.325 91.5814 121.272 91.4995 121.22C91.4785 121.216 91.4575 121.214 91.4344 121.21C91.4299 121.209 91.4254 121.208 91.4209 121.207C91.416 121.205 91.411 121.204 91.4058 121.202C91.3297 121.173 89.5971 120.441 89.2283 118.843C88.9825 117.79 89.3805 116.66 90.4166 115.489C90.6332 115.243 91.002 115.22 91.2419 115.437C91.4819 115.653 91.5053 116.022 91.2946 116.262C90.5278 117.128 90.2176 117.907 90.3698 118.568C90.481 119.06 90.8322 119.434 91.1658 119.692C91.2888 119.493 91.4819 119.329 91.7453 119.241C91.8975 119.189 92.0439 119.142 92.1902 119.101C92.1492 119.025 92.12 118.949 92.1141 118.861C91.1893 103.203 92.0673 92.3972 92.2487 90.5124C83.1056 91.8353 75.4434 94.9903 69.4436 99.9365C61.2077 106.727 57.4381 116.385 59.3639 125.774C61.477 136.07 69.8006 144.054 82.1983 147.683L82.2042 147.678ZM141.149 127.413C139.574 126.816 138.438 126.382 137.549 126.014V126.008C132.462 123.889 127.522 122.168 122.78 120.851C122.821 120.763 122.845 120.669 122.839 120.564C121.422 102.91 122.312 94.2527 122.611 92.0518C130.876 93.7902 139.498 96.5063 148.307 100.176C148.799 100.381 149.935 100.814 151.141 101.271C158.809 104.18 176.293 110.818 194.96 121.624C191.699 123.052 178.506 127.822 146.229 128.648C145.937 128.654 145.708 128.87 145.667 129.145C144.283 128.608 143.035 128.132 141.94 127.715L141.207 127.436L141.149 127.413ZM22.3319 137.891C24.1806 137.891 26.0058 138.207 27.755 138.833C29.751 139.547 31.548 140.618 33.0875 141.988C35.7216 141.309 39.9127 139.611 38.941 135.836C38.2672 133.211 36.4957 132.924 34.2359 132.558C32.3536 132.253 30.1325 131.893 27.9247 130.082C23.2185 126.219 19.4196 131.106 19.4196 131.106C17.4587 133.676 18.7874 136.222 20.4147 138.019C21.046 137.943 21.6831 137.891 22.3319 137.891ZM132.011 212.499C138.099 212.616 138.058 206.429 138.058 206.429C138.005 203.198 135.389 202.021 132.995 201.617C132.544 202.068 132.076 202.501 131.567 202.905C130.115 204.052 128.488 204.93 126.726 205.528C124.718 206.207 122.64 206.476 120.585 206.353C118.941 208.519 116.699 212.446 119.801 214.811C121.956 216.452 123.524 215.581 125.524 214.469C127.192 213.542 129.159 212.449 132.017 212.505L132.011 212.499ZM223.062 141.502C223.127 141.455 223.179 141.403 223.22 141.338V141.344C239.095 154.866 250.24 169.845 256.357 185.942C265.851 210.913 263.217 237.804 248.537 265.883C231.497 298.475 205.437 320.648 173.167 330.008C162.128 333.215 150.514 334.837 138.649 334.837C120.064 334.837 100.877 330.739 83.1523 322.989C52.2225 309.468 27.3628 286.025 13.1388 256.986C-2.90557 224.224 -4.28114 187.001 9.15261 149.346C11.1369 143.785 16.4343 140.051 22.3347 140.051C23.9327 140.051 25.5189 140.32 27.035 140.864C34.2992 143.457 38.1039 151.477 35.5108 158.747C24.6702 189.132 25.6243 218.85 38.2737 244.676C49.5826 267.768 69.5079 286.475 94.3676 297.345C108.58 303.562 123.945 306.846 138.79 306.846C175.386 306.846 205.555 287.693 223.741 252.912C234.553 232.231 236.73 213.043 230.204 195.881C224.479 180.826 212.151 166.69 193.555 153.818C197.494 152.729 213.123 148.158 223.062 141.502ZM97.7979 152.717L97.8001 152.729L97.7979 152.729V152.717ZM97.8001 152.729C100.201 153.234 115.046 156.294 127.054 157.663H127.118C127.2 157.663 127.276 157.64 127.346 157.611C129.342 166.66 131.807 176.155 134.698 185.924C135.664 189.173 135.565 192.685 134.201 195.787C132.515 199.621 129.319 202.431 125.356 203.607C124.057 203.994 122.716 204.187 121.37 204.187C115.224 204.187 109.71 200.066 107.959 194.172C103.67 179.73 100.264 165.814 97.8001 152.729ZM933.353 145.933C928.647 142.07 924.848 146.958 924.848 146.958C922.887 149.527 924.216 152.074 925.843 153.871C926.475 153.794 927.113 153.742 927.763 153.742C929.613 153.742 931.439 154.058 933.189 154.684C935.185 155.398 936.982 156.47 938.522 157.839C941.156 157.16 945.347 155.463 944.375 151.687C943.701 149.062 941.93 148.775 939.67 148.409C937.788 148.104 935.567 147.745 933.359 145.933H933.353ZM999.966 182.822C999.451 183.196 998.918 183.553 998.356 183.87C996.746 184.777 994.996 185.391 993.164 185.702C991.074 186.059 988.979 186 986.971 185.555C985.004 187.44 982.177 190.964 984.876 193.785C986.746 195.742 988.431 195.126 990.58 194.34C992.372 193.684 994.487 192.91 997.302 193.411C1003.3 194.476 1004.22 188.353 1004.22 188.353C1004.67 185.151 1002.27 183.583 999.972 182.816L999.966 182.822ZM341.156 197.895C336.796 197.895 334.097 197.543 334.033 197.532C333.717 197.491 333.494 197.198 333.535 196.882C328.729 200.587 322.806 202.636 316.572 202.636C301.206 202.636 288.709 190.139 288.709 174.773C288.709 173.111 288.855 171.478 289.136 169.88C288.393 168.656 284.231 161.55 282.2 153.022C279.777 142.86 281.234 134.449 286.409 128.361C271.248 138.248 261.204 155.357 261.204 174.773C261.204 205.305 286.046 230.147 316.578 230.147C340.009 230.147 361.087 215.051 368.808 193.101C358.049 197.087 347.724 197.895 341.168 197.895H341.156ZM437.241 175.769C437.323 177.735 437.563 180.34 438.16 183.442H438.166C439.413 189.981 442.539 200.031 450.318 210.831C440.279 224.961 427.764 232.395 413.874 232.395C405.861 232.395 398.438 229.07 392.421 222.79C385.578 215.648 380.386 204.614 376.599 189.173C376.624 189.173 376.65 189.172 376.676 189.168C376.69 189.166 376.703 189.164 376.717 189.161C376.751 189.153 376.784 189.142 376.816 189.126L376.826 189.121C377.25 188.913 389.927 182.697 400.616 168.943C404.017 190.197 408.624 199.036 411.246 202.519C410.321 201.881 409.273 200.898 408.307 199.376C408.132 199.1 407.775 199.019 407.5 199.194C407.225 199.37 407.143 199.727 407.318 200.002C409.987 204.216 413.353 204.796 413.669 204.843C413.739 204.866 413.81 204.884 413.868 204.884C424.305 204.884 433.928 186.574 437.241 175.769ZM291.209 125.569C271.851 139.623 289.927 168.914 290.219 169.382C293.714 174.609 298.566 179.398 304.724 183.682C314.371 190.396 324.263 194.646 334.208 196.355C334.206 196.358 334.203 196.36 334.199 196.362L334.195 196.365L334.19 196.368L334.188 196.37L334.185 196.373H334.197C334.366 196.396 351.137 198.585 368.972 191.795C369.072 191.76 369.171 191.754 369.265 191.772C369.265 191.76 369.271 191.754 369.276 191.743C371.571 190.718 373.86 189.548 376.113 188.242C376.166 188.172 376.236 188.113 376.318 188.072L376.328 188.068C376.753 187.859 389.551 181.584 400.154 167.638C400.23 167.538 400.329 167.48 400.44 167.445C406.698 160.099 410.52 153.713 411.328 152.319C419.979 138.716 428.315 113.429 433.074 86.3039C436.24 68.2634 437.37 52.7341 436.433 40.155C435.585 28.7934 433.156 21.9038 431.265 18.1283C425.447 6.49748 416.233 4.16779 411.258 3.81659C410.631 3.76976 409.993 3.7522 409.367 3.7522C402.682 3.7522 396.366 6.2692 391.098 11.0281C382.031 19.223 375.821 34.2254 372.121 56.8843C369.715 71.5999 369.247 84.3488 369.2 85.7244C369.154 86.8014 368.117 112.457 370.014 141.356C370.354 146.56 370.775 151.564 371.255 156.312C383.278 145.553 391.092 130.029 395.787 117.796C395.845 117.649 396.162 116.871 396.507 116.121C396.194 99.7437 396.662 87.6348 396.693 86.8411L396.694 86.8014V86.6551C396.695 86.6477 396.697 86.5979 396.701 86.5079C396.76 85.0882 397.24 73.6681 399.299 61.1456C401.594 47.1909 404.743 38.4926 407.465 34.0849C407.388 33.7045 406.961 31.9601 405.469 30.4324C405.387 30.3446 405.387 30.2041 405.469 30.1221C405.551 30.0402 405.697 30.0402 405.779 30.1221C407.501 31.8901 407.871 33.8845 407.907 34.0784L407.909 34.0908V34.1142C410.122 43.4095 409.443 61.7836 405.972 81.5391C403.824 93.7612 400.727 106.106 397.268 116.52C397.116 117.304 396.928 118.071 396.876 118.211C392.047 130.796 383.945 146.8 371.395 157.734C371.395 157.746 371.396 157.757 371.397 157.769C371.398 157.774 371.399 157.78 371.399 157.786C371.401 157.796 371.403 157.806 371.404 157.817L371.404 157.818L371.405 157.819L371.407 157.833C370.845 158.325 370.283 158.805 369.715 159.268L369.705 159.238C369.697 159.215 369.69 159.193 369.686 159.168C367.474 160.959 365.132 162.592 362.644 164.021C353.677 169.172 346.583 169.622 344.382 169.622C344.136 169.622 343.954 169.622 343.837 169.611C343.837 169.619 343.84 169.628 343.844 169.639C343.846 169.643 343.847 169.647 343.849 169.652C324.737 169.652 316.741 161.217 313.417 154.737C313.37 154.69 313.329 154.637 313.305 154.573C313.288 154.538 313.2 154.327 313.089 154.005C313.054 153.906 313.019 153.806 312.989 153.707C312.568 152.39 312 149.82 313.054 147.707C313.768 146.267 315.091 145.313 316.981 144.862C317.298 144.786 317.614 144.979 317.69 145.295C317.766 145.611 317.573 145.927 317.257 146.004C315.717 146.372 314.658 147.122 314.107 148.234C313.826 148.796 313.698 149.404 313.651 150.019C314.593 148.702 316.232 147.888 318.07 148.234C326.388 149.82 339.658 154.52 343.545 168.463C343.615 168.44 343.691 168.428 343.773 168.44L343.791 168.441C344.218 168.459 352.051 168.79 362.153 162.967C364.687 161.504 367.07 159.824 369.317 157.98C362.094 135.309 340.788 119.399 316.572 119.399C307.44 119.399 298.824 121.624 291.226 125.551C291.226 125.551 291.224 125.555 291.221 125.559C291.219 125.561 291.217 125.563 291.214 125.563L291.209 125.569ZM891.138 201.178C888.82 203.256 883.288 208.443 877.792 213.629C878.067 213.248 878.342 212.856 878.617 212.458C883.552 205.27 889.282 194.072 891.747 178.637V201.079C891.548 200.997 891.308 201.026 891.138 201.178ZM520.905 198.246C514.935 198.246 510.937 197.497 510.855 197.479C510.661 197.444 510.521 197.309 510.439 197.145C505.698 200.681 499.909 202.63 493.815 202.63C478.45 202.63 465.953 190.133 465.953 174.768C465.953 173.053 466.105 171.373 466.409 169.728C465.443 168.101 461.527 161.205 459.572 152.993C457.149 142.802 458.606 134.367 463.775 128.268C460.702 130.264 457.799 132.576 455.118 135.198C445.062 145.044 439.179 158.126 438.517 172.11C438.5 172.151 438.482 172.192 438.465 172.227C438.289 175.125 437.955 191.637 451.325 210.169C451.331 210.18 451.336 210.19 451.34 210.2L451.345 210.213C451.351 210.228 451.357 210.243 451.366 210.257C455.498 215.186 460.491 219.424 466.023 222.643C474.434 227.548 484.046 230.142 493.815 230.142C517.229 230.142 538.302 215.057 546.034 193.136C537.026 197.263 527.689 198.24 520.899 198.24L520.905 198.246ZM624.857 134.981C624.242 135.865 621.965 139.325 619.244 145.564L619.249 145.57C616.996 150.739 614.098 158.676 611.839 169.213C610.323 146.922 598.797 146.905 598.797 146.905C598.669 146.899 598.546 146.899 598.417 146.899C593.043 146.899 589.151 151.664 588.419 152.624C587.102 154.86 582.659 162.048 575.506 169.95C566.556 179.842 556.822 187.171 546.567 191.737C546.45 191.719 546.333 191.725 546.221 191.778C530.686 199.182 513.939 196.806 511.422 196.39C511.44 196.379 511.458 196.367 511.469 196.355C501.524 194.646 491.632 190.396 481.985 183.682C475.956 179.485 471.18 174.808 467.703 169.71C467.697 169.605 467.673 169.505 467.615 169.412L467.613 169.408C467.484 169.2 462.872 161.749 460.714 152.671C457.84 140.571 460.468 131.44 468.522 125.528C476.261 121.53 484.889 119.405 493.821 119.405C518.101 119.405 539.437 135.379 546.614 158.126C546.578 158.138 546.543 158.149 546.508 158.173C530.645 169.529 521.245 168.428 521.151 168.416C521.057 168.405 520.975 168.422 520.893 168.446C516.995 154.52 503.737 149.82 495.425 148.24C493.604 147.894 491.971 148.696 491.029 149.996C491.07 149.369 491.199 148.743 491.485 148.175C492.042 147.069 493.101 146.32 494.635 145.951C494.951 145.875 495.144 145.559 495.068 145.243C494.992 144.926 494.676 144.733 494.36 144.809C492.469 145.26 491.146 146.214 490.432 147.654C489.501 149.533 489.846 151.763 490.227 153.162C490.291 153.595 490.42 154.034 490.637 154.468C493.874 160.977 501.823 169.657 521.209 169.657C521.207 169.649 521.204 169.641 521.202 169.633C521.197 169.62 521.192 169.608 521.192 169.593C521.373 169.611 521.66 169.628 522.082 169.628C525.026 169.628 533.748 168.686 546.977 159.273C546.982 159.285 546.988 159.308 546.988 159.308C558.028 150.265 564.754 138.581 564.824 138.452C564.97 138.195 565.128 137.932 565.292 137.68C565.772 136.936 577.438 119.376 598.382 119.376C598.891 119.376 599.406 119.382 599.915 119.405C607.039 119.698 613.273 122.256 618.442 127.015C620.812 129.198 622.955 131.867 624.857 134.981ZM864.054 226.29C864.095 226.231 864.142 226.185 864.2 226.144C864.247 226.114 865.061 225.552 866.378 224.429L870.499 220.524C878.389 212.283 890.968 194.658 891.741 165.601V133.442C891.741 125.745 885.443 119.247 877.751 119.376C870.276 119.505 864.229 125.622 864.229 133.132C864.229 152.343 862.058 171.062 858.271 184.502C854.688 197.204 849.818 204.79 845.241 204.79C843.678 204.79 843.052 204.533 842.771 204.334C842.718 204.31 842.665 204.281 842.624 204.24C842.437 204.07 838.076 200.072 837.04 194.266C836.982 193.95 837.198 193.645 837.514 193.587C837.83 193.534 838.135 193.739 838.193 194.061C838.626 196.496 839.721 198.609 840.792 200.213C838.761 192.007 840.563 175.959 841.418 168.349L841.418 168.346C842.197 161.445 842.806 155.996 842.49 151.588C841.787 141.818 838.55 133.928 832.867 128.127C827.663 122.824 820.633 119.722 813.07 119.405C812.619 119.388 812.163 119.376 811.712 119.376C803.207 119.376 794.93 122.631 789.012 128.309C784.646 132.494 779.442 140.033 779.442 152.173C779.442 157.91 776.931 171.355 771.341 183.302C766.751 193.107 758.656 204.79 746.124 204.79C743.379 204.79 741.224 204.228 739.316 202.987H739.305C739.176 202.987 739.053 202.94 738.942 202.853C724.401 190.672 724.226 169.031 724.226 168.815C724.226 168.768 724.237 168.721 724.248 168.678L724.249 168.671L724.255 168.645C723.775 160.871 724.074 154.099 724.431 150.681C724.431 150.651 724.437 150.622 724.443 150.593C724.443 150.581 724.443 150.575 724.448 150.564C724.577 148.778 725.525 145.729 728.44 145.137C728.756 145.073 729.067 145.278 729.131 145.594C729.195 145.91 728.991 146.22 728.675 146.285C727.205 146.583 726.438 147.695 726.04 148.749C727.258 148.45 728.733 149.135 728.833 150.751C728.85 151.02 728.856 151.301 728.856 151.6C728.856 154.673 727.668 161.668 725.443 169.593C725.619 173.451 727.1 191.017 739.363 201.553C740.551 199.276 741.693 196.888 742.776 194.389C750.315 176.963 753.447 157.921 753.447 151.594C753.447 143.727 750.953 136.316 746.422 130.738C741.488 124.656 734.557 121.173 727.41 121.173C720.872 121.173 714.216 123.971 709.159 128.853C704.031 133.805 700.771 140.642 699.987 148.111L699.986 148.118V148.118C699.925 148.729 697.061 177.643 705.799 201.173C705.804 201.18 705.808 201.187 705.813 201.193L705.824 201.211C705.847 201.243 705.868 201.275 705.881 201.313L705.885 201.323C706.045 201.778 711.222 216.418 721.75 224.189C721.761 224.198 721.771 224.208 721.78 224.218C721.784 224.223 721.787 224.227 721.791 224.232L721.802 224.247C721.808 224.255 721.814 224.263 721.82 224.271C728.716 229.539 737.051 232.307 746.118 232.307C766.757 232.307 783.744 220.138 795.229 197.105C803.827 179.872 806.947 160.795 806.947 152.179C806.947 152.179 806.362 145.781 811.179 145.781C811.425 145.781 811.654 145.805 811.876 145.846C811.279 145.085 810.512 144.312 809.505 143.592C809.242 143.405 809.183 143.036 809.371 142.773C809.558 142.509 809.927 142.451 810.19 142.638C815.107 146.185 815.101 150.821 815.095 151.155C815.177 152.495 815.043 153.56 815.043 153.56C814.877 155.014 814.769 156.619 814.65 158.373C814.509 160.463 814.354 162.763 814.071 165.267C812.034 183.366 809.248 208.156 822.055 222.491C827.792 228.907 835.805 232.302 845.229 232.302C850.24 232.302 857.153 231.143 864.042 226.302L864.054 226.29ZM924.696 157.301C928.267 156.511 931.948 157.154 935.109 159.127C936.327 159.888 937.416 160.854 938.317 161.972C941.332 165.718 942.198 170.483 940.799 174.89C931.744 203.414 916.015 217.644 899.368 232.705L899.343 232.728C896.84 234.992 894.279 237.308 891.741 239.683V239.729C891.734 239.734 891.727 239.738 891.72 239.741C891.71 239.747 891.701 239.752 891.694 239.759C876.774 254.445 864.235 272.076 864.112 272.251C864.095 272.281 864.083 272.316 864.072 272.345C859.33 279.984 856.005 287.394 854.402 293.939C852.757 300.658 852.962 306.219 854.993 310.012C856.017 311.926 857.48 313.144 859.19 313.542C859.217 313.56 859.246 313.575 859.277 313.588C859.317 313.605 859.36 313.617 859.406 313.624C859.429 313.627 859.511 313.639 859.645 313.649C859.758 313.657 859.906 313.665 860.085 313.665C861.291 313.665 863.878 313.314 865.945 310.639C866.144 310.381 866.097 310.018 865.839 309.819C865.588 309.62 865.219 309.667 865.02 309.924C863.556 311.827 861.806 312.342 860.694 312.465C862.655 308.765 864.27 300.682 864.229 293.939V273.042C864.235 273.053 864.241 273.065 864.253 273.071C864.358 273.141 864.475 273.176 864.592 273.176C864.78 273.176 864.955 273.094 865.072 272.93C865.195 272.755 877.242 255.821 891.741 241.368V293.775C891.753 295.56 891.682 302.028 890.213 309.626C888.211 319.998 884.506 327.971 879.209 333.315C874.099 338.472 867.607 341.2 860.442 341.2C847.945 341.2 836.847 334.404 830.742 323.013C826.117 314.379 824.724 303.685 826.709 292.083C828.752 280.165 834.277 267.364 843.139 254.041C849.28 244.804 856 236.539 864.229 228.099V228.017C864.252 228.007 864.274 227.996 864.296 227.984C864.31 227.976 864.323 227.968 864.337 227.959C864.363 227.942 864.388 227.923 864.411 227.9C864.47 227.841 865.915 226.465 868.134 224.364L871.693 221.033C871.743 220.98 871.793 220.926 871.843 220.872L871.844 220.87L871.899 220.81C871.93 220.777 871.961 220.744 871.991 220.712C878.828 214.238 888.317 205.282 891.741 202.197V202.232C902.582 191.579 909.67 181.903 914.511 166.778C916.021 162.065 919.867 158.372 924.696 157.301ZM704.874 202.027L704.87 202.031L704.868 202.027H704.874ZM704.87 202.031C705.71 204.311 710.814 217.232 720.485 224.709C713.502 229.738 705.817 232.29 697.581 232.29C691.072 232.29 685.277 230.317 680.348 226.413C675.665 222.702 671.802 217.235 668.875 210.158C664.925 200.615 662.853 188.867 660.849 177.5L660.848 177.499L660.838 177.443C659.504 169.868 657.988 161.275 655.98 154.813C655.494 153.244 655.032 151.98 654.604 150.956C654.218 150.025 653.475 149.422 652.638 149.164C653.322 148.924 654.095 148.778 654.932 148.737C655.254 148.725 655.506 148.45 655.488 148.128C655.471 147.806 655.201 147.555 654.874 147.572C652.251 147.695 650.121 148.784 648.874 150.639L648.839 150.686C648.774 150.774 648.751 150.868 648.739 150.961C646.14 155.281 642.851 163.412 640.398 177.027C637.583 192.667 636.956 208.454 636.816 214.519C636.804 215.209 636.792 215.929 636.781 216.655C636.646 224.101 630.465 230.159 623.007 230.159H622.89C615.345 230.077 609.246 223.884 609.269 216.356C609.269 216.251 609.357 215.268 609.31 213.623C608.889 198.293 610.089 185.333 611.991 174.645V174.627C616.662 148.45 625.887 135.584 625.987 135.45C626.013 135.416 626.03 135.379 626.043 135.343C626.049 135.328 626.054 135.312 626.059 135.297L626.063 135.286C634.574 122.285 644.987 119.388 652.556 119.388C658.854 119.388 664.462 121.331 669.221 125.159C673.728 128.783 677.433 134.121 680.237 141.016C683.977 150.212 685.991 161.626 687.934 172.672C689.433 181.177 690.984 189.969 693.15 196.589C694.11 199.522 695.023 201.459 695.784 202.718C694.806 202.086 693.659 201.05 692.781 199.34C692.629 199.054 692.277 198.937 691.991 199.089C691.704 199.241 691.593 199.592 691.739 199.879C693.846 203.976 697.358 204.726 697.505 204.755H697.54C697.55 204.757 697.561 204.762 697.571 204.766C697.586 204.772 697.6 204.778 697.61 204.778C700.014 204.778 702.454 203.855 704.87 202.031ZM1010.37 6.37448C1024.95 8.90318 1032.09 16.8112 1035.51 22.9984H1035.51C1047.19 44.135 1033.97 75.9304 1019.97 109.6L1019.96 109.63C1012.73 127.009 1004 148.005 1003.1 159.888C995.453 134.133 991.97 111.977 991.08 105.772C991.227 105.685 991.355 105.55 991.432 105.363C992.327 103.191 993.229 101.025 994.118 98.8829C999.972 84.8053 1006.02 70.2477 1009.38 58.0432C1011.4 50.6619 1012.02 45.6748 1012.04 42.3324C1012.27 43.1402 1012.51 44.0651 1012.75 45.1245C1012.81 45.3938 1013.05 45.5811 1013.32 45.5811C1013.36 45.5811 1013.41 45.5811 1013.45 45.5694C1013.76 45.4933 1013.96 45.1831 1013.89 44.867C1012.77 39.8798 1011.57 37.6204 1011.3 37.1638C1011.2 36.9062 1011.11 36.6955 1011.01 36.5316C1010.34 35.3082 1008.48 34.4361 1005.5 33.9268H1005.48C1005.37 33.9151 1005.28 33.8976 1005.19 33.88C1005.02 33.8624 1004.74 33.839 1004.37 33.839C1002.51 33.839 998.889 34.3892 995.617 38.0652C988.71 45.8211 987.363 61.725 987.17 70.5169C986.954 80.4737 987.837 92.0812 989.798 105.158C989.798 105.164 989.801 105.17 989.804 105.175C989.807 105.181 989.81 105.187 989.81 105.193C990.542 110.449 994.306 135.532 1003.18 164.19C1003.23 164.524 1003.29 164.84 1003.37 165.144C1005.18 172.502 1000.69 180.071 993.369 182.014C992.193 182.324 990.981 182.482 989.775 182.482C983.559 182.482 978.027 178.303 976.324 172.321C964.266 129.953 958.506 95.2186 959.214 69.0711C959.823 46.5469 965.255 29.6128 975.358 18.7487C986.181 7.11201 999.381 5.85352 1004.56 5.85352C1006.61 5.85352 1008.62 6.03497 1010.37 6.37448Z" fill="#C49F8F"/>
</svg>
