<svg width="1033" height="284" viewBox="0 0 1033 284" fill="none" xmlns="http://www.w3.org/2000/svg">
<path d="M0.9 20V18.5H-0.6V20H0.9ZM0.9 29.6H-0.6V30.8976L0.68409 31.0844L0.9 29.6ZM17.4 32H18.9V30.7024L17.6159 30.5156L17.4 32ZM17.4 218L17.6159 219.484L18.9 219.298V218H17.4ZM0.9 220.4L0.684091 218.916L-0.6 219.102V220.4H0.9ZM0.9 230H-0.6V231.5H0.9V230ZM103.5 116H102V117.209L103.181 117.466L103.5 116ZM103.5 115.4L103.307 113.913L102 114.082V115.4H103.5ZM54 32.6L53.5633 31.165L52.5 31.4886V32.6H54ZM54 110H52.5V111.5H54V110ZM54 119.6V118.1H52.5V119.6H54ZM54 218H52.5V219.22L53.6941 219.468L54 218ZM-0.6 20V29.6H2.4V20H-0.6ZM0.68409 31.0844L17.1841 33.4844L17.6159 30.5156L1.11591 28.1156L0.68409 31.0844ZM15.9 32V218H18.9V32H15.9ZM17.1841 216.516L0.684091 218.916L1.11591 221.884L17.6159 219.484L17.1841 216.516ZM-0.6 220.4V230H2.4V220.4H-0.6ZM0.9 231.5H98.1V228.5H0.9V231.5ZM98.1 231.5C119.174 231.5 137.591 226.348 150.78 216.58C164.015 206.78 171.9 192.388 171.9 174.2H168.9C168.9 191.412 161.486 204.92 148.995 214.17C136.459 223.452 118.726 228.5 98.1 228.5V231.5ZM171.9 174.2C171.9 159.493 165.994 146.939 154.474 136.882C143 126.867 126.005 119.364 103.819 114.534L103.181 117.466C125.095 122.236 141.55 129.583 152.501 139.143C163.406 148.661 168.9 160.407 168.9 174.2H171.9ZM105 116V115.4H102V116H105ZM103.693 116.887C122.315 114.465 136.954 108.843 146.964 100.264C157.019 91.6449 162.3 80.1239 162.3 66.2H159.3C159.3 79.2761 154.381 89.9551 145.011 97.9861C135.596 106.057 121.585 111.535 103.307 113.913L103.693 116.887ZM162.3 66.2C162.3 50.2587 155.46 38.2559 144.27 30.2905C133.138 22.367 117.801 18.5 100.8 18.5V21.5C117.399 21.5 132.062 25.283 142.53 32.7345C152.94 40.1441 159.3 51.2413 159.3 66.2H162.3ZM100.8 18.5H0.9V21.5H100.8V18.5ZM54.4367 34.035C61.1462 31.993 69.9862 31.1 77.4 31.1V28.1C69.8138 28.1 60.6538 29.007 53.5633 31.165L54.4367 34.035ZM77.4 31.1C93.8982 31.1 105.166 34.378 112.306 40.5591C119.397 46.698 122.7 55.9523 122.7 68.6H125.7C125.7 55.4477 122.253 45.202 114.269 38.2909C106.334 31.422 94.2018 28.1 77.4 28.1V31.1ZM122.7 68.6C122.7 82.2122 118.399 92.0792 110.251 98.5907C102.04 105.152 89.6854 108.5 73.2 108.5V111.5C90.0146 111.5 103.16 108.098 112.124 100.934C121.151 93.7207 125.7 82.8877 125.7 68.6H122.7ZM73.2 108.5H54V111.5H73.2V108.5ZM55.5 110V32.6H52.5V110H55.5ZM54 121.1H66V118.1H54V121.1ZM66 121.1C88.4478 121.1 104.243 126.231 114.409 134.987C124.538 143.71 129.3 156.224 129.3 171.5H132.3C132.3 155.576 127.312 142.14 116.366 132.713C105.457 123.319 88.8522 118.1 66 118.1V121.1ZM129.3 171.5C129.3 187.536 124.458 199.287 115.245 207.066C105.985 214.885 92.0673 218.9 73.5 218.9V221.9C92.4328 221.9 107.165 217.815 117.18 209.359C127.242 200.863 132.3 188.163 132.3 171.5H129.3ZM73.5 218.9C66.753 218.9 61.4706 218.024 54.3059 216.532L53.6941 219.468C60.9294 220.976 66.447 221.9 73.5 221.9V218.9ZM55.5 218V119.6H52.5V218H55.5ZM257.098 80.6C218.518 80.6 191.098 115.748 191.098 158.3H194.098C194.098 116.852 220.677 83.6 257.098 83.6V80.6ZM191.098 158.3C191.098 180.482 197.555 199.817 209.07 213.635C220.605 227.476 237.151 235.7 257.098 235.7V232.7C238.044 232.7 222.341 224.874 211.375 211.715C200.39 198.533 194.098 179.918 194.098 158.3H191.098ZM257.098 235.7C277.32 235.7 293.851 225.115 305.276 210.213C316.688 195.327 323.098 176.032 323.098 158.3H320.098C320.098 175.368 313.908 194.023 302.895 208.387C291.895 222.735 276.175 232.7 257.098 232.7V235.7ZM323.098 158.3C323.098 117.288 296.911 80.6 257.098 80.6V83.6C294.685 83.6 320.098 118.312 320.098 158.3H323.098ZM228.298 158.3C228.298 136.591 230.402 120.428 235.072 109.738C237.397 104.418 240.325 100.528 243.876 97.9647C247.412 95.412 251.67 94.1 256.798 94.1V91.1C251.126 91.1 246.233 92.563 242.12 95.5322C238.021 98.4909 234.799 102.87 232.323 108.537C227.393 119.822 225.298 136.509 225.298 158.3H228.298ZM256.798 94.1C262.222 94.1 266.665 95.5038 270.313 98.1663C273.977 100.84 276.944 104.86 279.27 110.256C283.943 121.098 285.898 137.188 285.898 158H288.898C288.898 137.112 286.953 120.502 282.025 109.069C279.551 103.328 276.293 98.8162 272.082 95.743C267.855 92.6586 262.773 91.1 256.798 91.1V94.1ZM285.898 158C285.898 175.147 283.582 191.357 278.734 203.22C273.869 215.124 266.679 222.2 257.098 222.2V225.2C268.516 225.2 276.476 216.676 281.511 204.355C286.563 191.993 288.898 175.353 288.898 158H285.898ZM257.098 222.2C252.071 222.2 247.848 221.107 244.313 218.842C240.776 216.575 237.812 213.059 235.429 208.021C230.63 197.878 228.298 181.816 228.298 158.3H225.298C225.298 181.884 227.615 198.522 232.717 209.304C235.283 214.729 238.582 218.732 242.694 221.368C246.81 224.005 251.624 225.2 257.098 225.2V222.2ZM383.398 0.799983H384.898V-1.38912L382.856 -0.59887L383.398 0.799983ZM336.898 18.8L336.356 17.4011L335.398 17.7722V18.8H336.898ZM336.898 26.9H335.398V28.4H336.898V26.9ZM353.398 218.9L353.666 220.376L354.898 220.152V218.9H353.398ZM336.898 221.9L336.629 220.424L335.398 220.648V221.9H336.898ZM336.898 230H335.398V231.5H336.898V230ZM399.898 230V231.5H401.398V230H399.898ZM399.898 221.9H401.398V220.648L400.166 220.424L399.898 221.9ZM383.398 218.9H381.898V220.152L383.129 220.376L383.398 218.9ZM382.856 -0.59887L336.356 17.4011L337.439 20.1988L383.939 2.19883L382.856 -0.59887ZM335.398 18.8V26.9H338.398V18.8H335.398ZM336.898 28.4C342.805 28.4 346.489 29.3748 348.701 31.1756C350.83 32.9095 351.898 35.6714 351.898 40.1H354.898C354.898 35.2286 353.716 31.3905 350.595 28.8493C347.556 26.3751 342.99 25.4 336.898 25.4V28.4ZM351.898 40.1V218.9H354.898V40.1H351.898ZM353.129 217.424L336.629 220.424L337.166 223.376L353.666 220.376L353.129 217.424ZM335.398 221.9V230H338.398V221.9H335.398ZM336.898 231.5H399.898V228.5H336.898V231.5ZM401.398 230V221.9H398.398V230H401.398ZM400.166 220.424L383.666 217.424L383.129 220.376L399.629 223.376L400.166 220.424ZM384.898 218.9V0.799983H381.898V218.9H384.898ZM477.422 80.6C438.842 80.6 411.422 115.748 411.422 158.3H414.422C414.422 116.852 441.002 83.6 477.422 83.6V80.6ZM411.422 158.3C411.422 180.482 417.879 199.817 429.395 213.635C440.929 227.476 457.475 235.7 477.422 235.7V232.7C458.368 232.7 442.665 224.874 431.699 211.715C420.714 198.533 414.422 179.918 414.422 158.3H411.422ZM477.422 235.7C497.644 235.7 514.175 225.115 525.6 210.213C537.012 195.327 543.422 176.032 543.422 158.3H540.422C540.422 175.368 534.232 194.023 523.219 208.387C512.219 222.735 496.499 232.7 477.422 232.7V235.7ZM543.422 158.3C543.422 117.288 517.235 80.6 477.422 80.6V83.6C515.009 83.6 540.422 118.312 540.422 158.3H543.422ZM448.622 158.3C448.622 136.591 450.727 120.428 455.396 109.738C457.721 104.418 460.649 100.528 464.2 97.9647C467.736 95.412 471.994 94.1 477.122 94.1V91.1C471.45 91.1 466.558 92.563 462.444 95.5322C458.345 98.4909 455.123 102.87 452.647 108.537C447.717 119.822 445.622 136.509 445.622 158.3H448.622ZM477.122 94.1C482.546 94.1 486.989 95.5038 490.638 98.1663C494.301 100.84 497.269 104.86 499.594 110.256C504.267 121.098 506.222 137.188 506.222 158H509.222C509.222 137.112 507.277 120.502 502.349 109.069C499.875 103.328 496.617 98.8162 492.406 95.743C488.18 92.6586 483.097 91.1 477.122 91.1V94.1ZM506.222 158C506.222 175.147 503.907 191.357 499.058 203.22C494.193 215.124 487.003 222.2 477.422 222.2V225.2C488.841 225.2 496.8 216.676 501.835 204.355C506.887 191.993 509.222 175.353 509.222 158H506.222ZM477.422 222.2C472.395 222.2 468.172 221.107 464.638 218.842C461.1 216.575 458.136 213.059 455.753 208.021C450.954 197.878 448.622 181.816 448.622 158.3H445.622C445.622 181.884 447.94 198.522 453.041 209.304C455.607 214.729 458.906 218.732 463.019 221.368C467.134 224.005 471.949 225.2 477.422 225.2V222.2ZM553.322 96.2L552.767 94.8065L551.822 95.1828V96.2H553.322ZM553.322 104.3H551.822V105.768L553.29 105.8L553.322 104.3ZM572.822 218.9L573.09 220.376L574.322 220.152V218.9H572.822ZM556.322 221.9L556.054 220.424L554.822 220.648V221.9H556.322ZM556.322 230H554.822V231.5H556.322V230ZM617.222 230V231.5H618.722V230H617.222ZM617.222 221.9H618.722V220.68L617.528 220.432L617.222 221.9ZM602.822 218.9H601.322V220.12L602.516 220.368L602.822 218.9ZM602.822 122.3L601.719 121.284L601.322 121.714V122.3H602.822ZM658.922 218.9L659.228 220.368L660.422 220.12V218.9H658.922ZM644.522 221.9L644.216 220.432L643.022 220.68V221.9H644.522ZM644.522 230H643.022V231.5H644.522V230ZM703.322 230V231.5H704.822V230H703.322ZM703.322 221.9H704.822V220.68L703.628 220.432L703.322 221.9ZM688.922 218.9H687.422V220.12L688.616 220.368L688.922 218.9ZM601.322 107L599.867 107.364L600.577 110.207L602.468 107.968L601.322 107ZM588.722 82.1L589.722 80.9821L589.03 80.3627L588.167 80.7065L588.722 82.1ZM551.822 96.2V104.3H554.822V96.2H551.822ZM553.29 105.8C560.33 105.949 564.602 106.944 567.251 109.848C569.945 112.802 571.322 118.116 571.322 128H574.322C574.322 118.084 572.999 111.698 569.468 107.827C565.892 103.906 560.414 102.951 553.354 102.8L553.29 105.8ZM571.322 128V218.9H574.322V128H571.322ZM572.554 217.424L556.054 220.424L556.59 223.376L573.09 220.376L572.554 217.424ZM554.822 221.9V230H557.822V221.9H554.822ZM556.322 231.5H617.222V228.5H556.322V231.5ZM618.722 230V221.9H615.722V230H618.722ZM617.528 220.432L603.128 217.432L602.516 220.368L616.916 223.368L617.528 220.432ZM604.322 218.9V122.3H601.322V218.9H604.322ZM603.925 123.316C609.235 117.552 613.002 113.283 617.076 110.399C621.044 107.59 625.312 106.1 631.622 106.1V103.1C624.732 103.1 619.85 104.76 615.343 107.951C610.942 111.067 606.909 115.648 601.719 121.284L603.925 123.316ZM631.622 106.1C640.269 106.1 646.655 108.969 650.898 113.769C655.165 118.595 657.422 125.553 657.422 134H660.422C660.422 125.047 658.029 117.305 653.146 111.781C648.239 106.231 640.975 103.1 631.622 103.1V106.1ZM657.422 134V218.9H660.422V134H657.422ZM658.616 217.432L644.216 220.432L644.828 223.368L659.228 220.368L658.616 217.432ZM643.022 221.9V230H646.022V221.9H643.022ZM644.522 231.5H703.322V228.5H644.522V231.5ZM704.822 230V221.9H701.822V230H704.822ZM703.628 220.432L689.228 217.432L688.616 220.368L703.016 223.368L703.628 220.432ZM690.422 218.9V131H687.422V218.9H690.422ZM690.422 131C690.422 115.568 685.988 102.945 677.833 94.1666C669.667 85.3753 657.918 80.6 643.622 80.6V83.6C657.226 83.6 668.127 88.1247 675.635 96.2084C683.156 104.305 687.422 116.132 687.422 131H690.422ZM643.622 80.6C636.045 80.6 628.045 83.5898 620.559 88.2111C613.058 92.8421 605.965 99.1768 600.176 106.032L602.468 107.968C608.079 101.323 614.936 95.2079 622.135 90.7639C629.349 86.3102 636.799 83.6 643.622 83.6V80.6ZM602.777 106.636C601.704 102.342 599.945 97.2965 597.725 92.6641C595.518 88.0604 592.79 83.727 589.722 80.9821L587.722 83.2179C590.354 85.5729 592.876 89.4896 595.019 93.9609C597.149 98.4035 598.84 103.258 599.867 107.364L602.777 106.636ZM588.167 80.7065L552.767 94.8065L553.877 97.5935L589.277 83.4935L588.167 80.7065ZM830.121 198.2L831.367 199.035L832.146 197.874L831.042 197.016L830.121 198.2ZM822.021 191.9L822.942 190.716L821.785 189.816L820.858 190.952L822.021 191.9ZM746.721 161.3L746.334 159.851L745.16 160.164L745.223 161.378L746.721 161.3ZM829.821 139.1L830.208 140.549L831.321 140.252V139.1H829.821ZM745.221 148.7L743.721 148.688L743.706 150.654L745.606 150.15L745.221 148.7ZM779.121 139.7L779.506 141.15L779.512 141.148L779.121 139.7ZM777.621 80.6C755.809 80.6 740.305 92.7809 730.325 109.299C720.368 125.779 715.821 146.685 715.821 164.6H718.821C718.821 147.115 723.274 126.771 732.892 110.851C742.488 94.9691 757.133 83.6 777.621 83.6V80.6ZM715.821 164.6C715.821 203.132 738.345 235.7 772.521 235.7V232.7C740.697 232.7 718.821 202.268 718.821 164.6H715.821ZM772.521 235.7C784.466 235.7 794.872 233.014 804.476 227.036C814.056 221.073 822.747 211.89 831.367 199.035L828.875 197.365C820.395 210.01 811.987 218.827 802.891 224.489C793.82 230.136 783.976 232.7 772.521 232.7V235.7ZM831.042 197.016L822.942 190.716L821.1 193.084L829.2 199.384L831.042 197.016ZM820.858 190.952C814.27 199.038 809.535 203.806 804.866 206.586C800.271 209.322 795.621 210.2 789.021 210.2V213.2C795.921 213.2 801.171 212.278 806.401 209.164C811.557 206.094 816.572 200.962 823.184 192.848L820.858 190.952ZM789.021 210.2C765.55 210.2 749.697 189.604 748.219 161.222L745.223 161.378C746.745 190.596 763.292 213.2 789.021 213.2V210.2ZM747.108 162.749L830.208 140.549L829.434 137.651L746.334 159.851L747.108 162.749ZM831.321 139.1C831.321 112.491 812.336 80.6 777.621 80.6V83.6C810.106 83.6 828.321 113.509 828.321 139.1H831.321ZM746.721 148.712C746.87 129.78 749.855 116.028 754.609 107.065C759.335 98.1538 765.718 94.1 772.821 94.1V91.1C764.324 91.1 757.057 96.0462 751.958 105.66C746.887 115.222 743.872 129.52 743.721 148.688L746.721 148.712ZM772.821 94.1C785.814 94.1 794.421 105.419 794.421 119.9H797.421C797.421 104.381 788.028 91.1 772.821 91.1V94.1ZM794.421 119.9C794.421 126.773 793.029 130.496 790.623 132.902C788.132 135.392 784.322 136.74 778.73 138.252L779.512 141.148C785.02 139.66 789.61 138.158 792.744 135.023C795.963 131.804 797.421 127.127 797.421 119.9H794.421ZM778.736 138.25L744.836 147.25L745.606 150.15L779.506 141.15L778.736 138.25ZM831.122 93.5L830.682 92.0658L829.622 92.3908V93.5H831.122ZM831.122 101.6H829.622V103.014L831.034 103.097L831.122 101.6ZM864.722 149L863.327 149.552L863.327 149.553L864.722 149ZM896.822 230L898.242 230.482L898.419 229.96L898.216 229.447L896.822 230ZM925.322 201.5L923.956 200.88L923.955 200.882L925.322 201.5ZM943.322 123.5L944.774 123.876L945.075 122.716L944.009 122.167L943.322 123.5ZM914.522 196.1L913.132 196.663L914.423 199.85L915.881 196.736L914.522 196.1ZM868.322 82.1L869.712 81.5366L869.196 80.2633L867.882 80.6658L868.322 82.1ZM829.622 93.5V101.6H832.622V93.5H829.622ZM831.034 103.097C834.774 103.317 837.552 103.861 839.906 105.068C842.241 106.264 844.296 108.184 846.451 111.398C850.836 117.939 855.34 129.358 863.327 149.552L866.117 148.448C858.204 128.442 853.557 116.611 848.943 109.727C846.598 106.229 844.191 103.892 841.275 102.398C838.379 100.914 835.12 100.333 831.21 100.103L831.034 103.097ZM863.327 149.553L895.427 230.553L898.216 229.447L866.116 148.447L863.327 149.553ZM895.401 229.518C892.413 238.332 889.751 244.525 887.461 248.487C886.313 250.472 885.297 251.832 884.428 252.676C883.535 253.544 882.974 253.7 882.722 253.7V256.7C884.119 256.7 885.397 255.918 886.519 254.827C887.666 253.712 888.843 252.09 890.058 249.988C892.493 245.775 895.23 239.368 898.242 230.482L895.401 229.518ZM882.722 253.7C881.979 253.7 881.014 253.495 879.697 253.105C878.303 252.693 877.002 252.234 875.134 251.665C871.613 250.593 867.179 249.5 861.722 249.5V252.5C866.765 252.5 870.881 253.507 874.26 254.535C875.842 255.016 877.579 255.607 878.846 255.982C880.193 256.38 881.515 256.7 882.722 256.7V253.7ZM861.722 249.5C856.009 249.5 851.444 251.255 848.321 254.631C845.214 257.99 843.722 262.75 843.722 268.4H846.722C846.722 263.25 848.08 259.31 850.523 256.669C852.95 254.045 856.635 252.5 861.722 252.5V249.5ZM843.722 268.4C843.722 273.759 845.698 278.143 849.817 281.127C853.855 284.053 859.771 285.5 867.422 285.5V282.5C860.073 282.5 854.889 281.097 851.577 278.698C848.346 276.357 846.722 272.941 846.722 268.4H843.722ZM867.422 285.5C873.846 285.5 880.985 281.49 890.253 269.308C899.547 257.094 911.228 236.342 926.689 202.118L923.955 200.882C908.516 235.058 896.947 255.556 887.866 267.492C878.759 279.46 872.398 282.5 867.422 282.5V285.5ZM926.688 202.12C939.148 174.647 948.315 152.333 954.371 135.482C957.398 127.058 959.654 119.983 961.155 114.302C962.647 108.653 963.422 104.278 963.422 101.3H960.422C960.422 103.872 959.734 107.935 958.254 113.536C956.783 119.105 954.558 126.092 951.548 134.468C945.528 151.217 936.396 173.453 923.956 200.88L926.688 202.12ZM963.422 101.3C963.422 94.8925 961.7 89.6742 958.245 86.0521C954.779 82.4194 949.768 80.6 943.622 80.6V83.6C949.176 83.6 953.315 85.2306 956.074 88.1229C958.843 91.0257 960.422 95.4075 960.422 101.3H963.422ZM943.622 80.6C937.794 80.6 932.792 82.2582 929.249 85.8018C925.703 89.3472 923.822 94.5754 923.822 101.3H926.822C926.822 95.1246 928.54 90.7528 931.37 87.9232C934.201 85.0918 938.35 83.6 943.622 83.6V80.6ZM923.822 101.3C923.822 106.266 926.057 110.876 929.473 114.841C932.89 118.809 937.558 122.218 942.635 124.833L944.009 122.167C939.186 119.682 934.854 116.491 931.746 112.884C928.637 109.274 926.822 105.334 926.822 101.3H923.822ZM941.87 123.124C937.706 139.184 928.455 162.782 913.163 195.464L915.881 196.736C931.189 164.018 940.538 140.216 944.774 123.876L941.87 123.124ZM915.912 195.537L869.712 81.5366L866.932 82.6634L913.132 196.663L915.912 195.537ZM867.882 80.6658L830.682 92.0658L831.561 94.9342L868.761 83.5342L867.882 80.6658ZM1000.42 85.7L998.959 86.0274L998.96 86.0312L1000.42 85.7ZM1007.32 172.1H1005.82V173.6H1007.32V172.1ZM1017.52 172.1V173.6H1019.02V172.1H1017.52ZM1023.82 88.7L1022.36 88.3684L1022.36 88.3746L1023.82 88.7ZM1010.92 191.9C998.994 191.9 989.623 201.272 989.623 213.2H992.623C992.623 202.928 1000.65 194.9 1010.92 194.9V191.9ZM989.623 213.2C989.623 225.128 998.994 234.5 1010.92 234.5V231.5C1000.65 231.5 992.623 223.472 992.623 213.2H989.623ZM1010.92 234.5C1022.54 234.5 1032.22 225.143 1032.22 213.2H1029.22C1029.22 223.457 1020.91 231.5 1010.92 231.5V234.5ZM1032.22 213.2C1032.22 201.257 1022.54 191.9 1010.92 191.9V194.9C1020.91 194.9 1029.22 202.943 1029.22 213.2H1032.22ZM1012.42 14C1004.86 14 999.334 16.5458 995.768 21.3567C992.265 26.0817 990.823 32.7625 990.823 40.7H993.823C993.823 33.0375 995.231 27.1183 998.178 23.1433C1001.06 19.2541 1005.59 17 1012.42 17V14ZM990.823 40.7C990.823 45.0486 991.596 50.7145 992.986 58.0782C994.379 65.4576 996.41 74.6334 998.959 86.0274L1001.89 85.3726C999.335 73.9666 997.316 64.8423 995.934 57.5217C994.549 50.1855 993.823 44.7514 993.823 40.7H990.823ZM998.96 86.0312C1002.53 101.781 1005.82 131.658 1005.82 172.1H1008.82C1008.82 131.542 1005.52 101.419 1001.89 85.3688L998.96 86.0312ZM1007.32 173.6H1017.52V170.6H1007.32V173.6ZM1019.02 172.1C1019.02 134.042 1021.72 105.068 1025.29 89.0254L1022.36 88.3746C1018.72 104.732 1016.02 133.958 1016.02 172.1H1019.02ZM1025.29 89.0316C1030.36 66.6285 1034.02 50.8136 1034.02 40.1H1031.02C1031.02 50.3864 1027.48 65.7715 1022.36 88.3684L1025.29 89.0316ZM1034.02 40.1C1034.02 32.4523 1032.58 25.9202 1029.07 21.2716C1025.5 16.5442 1019.99 14 1012.42 14V17C1019.26 17 1023.79 19.2558 1026.68 23.0783C1029.62 26.9798 1031.02 32.7477 1031.02 40.1H1034.02Z" fill="#5E5A58"/>
</svg>
