<svg width="1033" height="284" viewBox="0 0 1033 284" fill="none" xmlns="http://www.w3.org/2000/svg">
<path d="M0.9 20V19.5H0.4V20H0.9ZM0.9 29.6H0.4V30.0325L0.82803 30.0948L0.9 29.6ZM17.4 32H17.9V31.5675L17.472 31.5052L17.4 32ZM17.4 218L17.472 218.495L17.9 218.433V218H17.4ZM0.9 220.4L0.828031 219.905L0.4 219.967V220.4H0.9ZM0.9 230H0.4V230.5H0.9V230ZM103.5 116H103V116.403L103.394 116.489L103.5 116ZM103.5 115.4L103.436 114.904L103 114.961V115.4H103.5ZM54 32.6L53.8544 32.1216L53.5 32.2295V32.6H54ZM54 110H53.5V110.5H54V110ZM54 119.6V119.1H53.5V119.6H54ZM54 218H53.5V218.407L53.898 218.489L54 218ZM0.4 20V29.6H1.4V20H0.4ZM0.82803 30.0948L17.328 32.4948L17.472 31.5052L0.97197 29.1052L0.82803 30.0948ZM16.9 32V218H17.9V32H16.9ZM17.328 217.505L0.828031 219.905L0.97197 220.895L17.472 218.495L17.328 217.505ZM0.4 220.4V230H1.4V220.4H0.4ZM0.9 230.5H98.1V229.5H0.9V230.5ZM98.1 230.5C119.025 230.5 137.214 225.383 150.185 215.777C163.172 206.16 170.9 192.063 170.9 174.2H169.9C169.9 191.737 162.329 205.54 149.59 214.973C136.836 224.417 118.875 229.5 98.1 229.5V230.5ZM170.9 174.2C170.9 159.798 165.131 147.513 153.816 137.636C142.517 127.772 125.702 120.321 103.606 115.511L103.394 116.489C125.398 121.279 142.033 128.678 153.159 138.389C164.269 148.087 169.9 160.102 169.9 174.2H170.9ZM104 116V115.4H103V116H104ZM103.565 115.896C122.072 113.488 136.501 107.914 146.313 99.5046C156.14 91.0816 161.3 79.8413 161.3 66.2H160.3C160.3 79.5587 155.26 90.5184 145.662 98.7454C136.049 106.986 121.828 112.512 103.436 114.904L103.565 115.896ZM161.3 66.2C161.3 50.5862 154.62 38.8853 143.69 31.1051C132.779 23.339 117.667 19.5 100.8 19.5V20.5C117.533 20.5 132.421 24.311 143.11 31.9198C153.78 39.5147 160.3 50.9138 160.3 66.2H161.3ZM100.8 19.5H0.9V20.5H100.8V19.5ZM54.1456 33.0783C60.9821 30.9977 69.9287 30.1 77.4 30.1V29.1C69.8713 29.1 60.8179 30.0023 53.8544 32.1216L54.1456 33.0783ZM77.4 30.1C93.9994 30.1 105.555 33.3927 112.96 39.803C120.349 46.1993 123.7 55.7841 123.7 68.6H124.7C124.7 55.6159 121.301 45.7007 113.615 39.047C105.945 32.4073 94.1006 29.1 77.4 29.1V30.1ZM123.7 68.6C123.7 82.4374 119.316 92.6264 110.875 99.3719C102.413 106.134 89.7951 109.5 73.2 109.5V110.5C89.9049 110.5 102.787 107.116 111.5 100.153C120.234 93.1736 124.7 82.6626 124.7 68.6H123.7ZM73.2 109.5H54V110.5H73.2V109.5ZM54.5 110V32.6H53.5V110H54.5ZM54 120.1H66V119.1H54V120.1ZM66 120.1C88.5826 120.1 104.648 125.26 115.061 134.229C125.463 143.187 130.3 156.008 130.3 171.5H131.3C131.3 155.792 126.387 142.663 115.714 133.471C105.052 124.29 88.7174 119.1 66 119.1V120.1ZM130.3 171.5C130.3 187.745 125.386 199.812 115.89 207.83C106.378 215.862 92.1891 219.9 73.5 219.9V220.9C92.3109 220.9 106.772 216.838 116.535 208.595C126.314 200.338 131.3 187.954 131.3 171.5H130.3ZM73.5 219.9C66.651 219.9 61.2902 219.008 54.102 217.511L53.898 218.489C61.1098 219.992 66.549 220.9 73.5 220.9V219.9ZM54.5 218V119.6H53.5V218H54.5ZM257.098 81.6C219.238 81.6 192.098 116.116 192.098 158.3H193.098C193.098 116.484 219.958 82.6 257.098 82.6V81.6ZM192.098 158.3C192.098 180.294 198.5 199.389 209.839 212.995C221.183 226.609 237.449 234.7 257.098 234.7V233.7C237.746 233.7 221.762 225.741 210.607 212.355C199.445 198.961 193.098 180.106 193.098 158.3H192.098ZM257.098 234.7C276.939 234.7 293.199 224.322 304.482 209.604C315.761 194.892 322.098 175.811 322.098 158.3H321.098C321.098 175.589 314.834 194.458 303.688 208.996C292.547 223.528 276.557 233.7 257.098 233.7V234.7ZM322.098 158.3C322.098 117.629 296.169 81.6 257.098 81.6V82.6C295.427 82.6 321.098 117.971 321.098 158.3H322.098ZM227.298 158.3C227.298 136.564 229.399 120.226 234.156 109.338C236.531 103.902 239.557 99.8488 243.29 97.1538C247.019 94.4623 251.488 93.1 256.798 93.1V92.1C251.307 92.1 246.626 93.5126 242.705 96.343C238.789 99.1699 235.665 103.386 233.239 108.937C228.396 120.024 226.298 136.536 226.298 158.3H227.298ZM256.798 93.1C262.406 93.1 267.062 94.5554 270.903 97.3586C274.749 100.165 277.813 104.349 280.188 109.86C284.946 120.899 286.898 137.163 286.898 158H287.898C287.898 137.137 285.949 120.701 281.107 109.465C278.682 103.838 275.521 99.4908 271.492 96.5508C267.459 93.607 262.589 92.1 256.798 92.1V93.1ZM286.898 158C286.898 175.216 284.576 191.569 279.66 203.598C274.738 215.641 267.291 223.2 257.098 223.2V224.2C267.904 224.2 275.607 216.159 280.586 203.977C285.569 191.781 287.898 175.284 287.898 158H286.898ZM257.098 223.2C251.922 223.2 247.502 222.073 243.774 219.684C240.045 217.294 236.969 213.615 234.525 208.449C229.625 198.093 227.298 181.839 227.298 158.3H226.298C226.298 181.861 228.62 198.307 233.621 208.876C236.126 214.172 239.313 218.013 243.234 220.526C247.156 223.039 251.773 224.2 257.098 224.2V223.2ZM383.398 0.799983H383.898V0.0702803L383.217 0.333698L383.398 0.799983ZM336.898 18.8L336.717 18.3337L336.398 18.4574V18.8H336.898ZM336.898 26.9H336.398V27.4H336.898V26.9ZM353.398 218.9L353.487 219.392L353.898 219.317V218.9H353.398ZM336.898 221.9L336.808 221.408L336.398 221.483V221.9H336.898ZM336.898 230H336.398V230.5H336.898V230ZM399.898 230V230.5H400.398V230H399.898ZM399.898 221.9H400.398V221.483L399.987 221.408L399.898 221.9ZM383.398 218.9H382.898V219.317L383.308 219.392L383.398 218.9ZM383.217 0.333698L336.717 18.3337L337.078 19.2663L383.578 1.26627L383.217 0.333698ZM336.398 18.8V26.9H337.398V18.8H336.398ZM336.898 27.4C342.867 27.4 346.845 28.3749 349.332 30.4002C351.792 32.4032 352.898 35.5238 352.898 40.1H353.898C353.898 35.3762 352.754 31.8968 349.963 29.6248C347.201 27.375 342.928 26.4 336.898 26.4V27.4ZM352.898 40.1V218.9H353.898V40.1H352.898ZM353.308 218.408L336.808 221.408L336.987 222.392L353.487 219.392L353.308 218.408ZM336.398 221.9V230H337.398V221.9H336.398ZM336.898 230.5H399.898V229.5H336.898V230.5ZM400.398 230V221.9H399.398V230H400.398ZM399.987 221.408L383.487 218.408L383.308 219.392L399.808 222.392L399.987 221.408ZM383.898 218.9V0.799983H382.898V218.9H383.898ZM477.422 81.6C439.562 81.6 412.422 116.116 412.422 158.3H413.422C413.422 116.484 440.282 82.6 477.422 82.6V81.6ZM412.422 158.3C412.422 180.294 418.824 199.389 430.163 212.995C441.508 226.609 457.773 234.7 477.422 234.7V233.7C458.071 233.7 442.086 225.741 430.931 212.355C419.769 198.961 413.422 180.106 413.422 158.3H412.422ZM477.422 234.7C497.263 234.7 513.523 224.322 524.806 209.604C536.085 194.892 542.422 175.811 542.422 158.3H541.422C541.422 175.589 535.159 194.458 524.013 208.996C512.871 223.528 496.881 233.7 477.422 233.7V234.7ZM542.422 158.3C542.422 117.629 516.493 81.6 477.422 81.6V82.6C515.751 82.6 541.422 117.971 541.422 158.3H542.422ZM447.622 158.3C447.622 136.564 449.723 120.226 454.48 109.338C456.855 103.902 459.881 99.8488 463.615 97.1538C467.343 94.4623 471.813 93.1 477.122 93.1V92.1C471.631 92.1 466.95 93.5126 463.029 96.343C459.113 99.1699 455.989 103.386 453.564 108.937C448.72 120.024 446.622 136.536 446.622 158.3H447.622ZM477.122 93.1C482.73 93.1 487.386 94.5554 491.227 97.3586C495.073 100.165 498.137 104.349 500.513 109.86C505.27 120.899 507.222 137.163 507.222 158H508.222C508.222 137.137 506.274 120.701 501.431 109.465C499.006 103.838 495.845 99.4908 491.817 96.5508C487.783 93.607 482.914 92.1 477.122 92.1V93.1ZM507.222 158C507.222 175.216 504.9 191.569 499.984 203.598C495.062 215.641 487.616 223.2 477.422 223.2V224.2C488.228 224.2 495.931 216.159 500.91 203.977C505.894 191.781 508.222 175.284 508.222 158H507.222ZM477.422 223.2C472.246 223.2 467.826 222.073 464.098 219.684C460.369 217.294 457.293 213.615 454.849 208.449C449.949 198.093 447.622 181.839 447.622 158.3H446.622C446.622 181.861 448.944 198.307 453.945 208.876C456.45 214.172 459.637 218.013 463.558 220.526C467.48 223.039 472.097 224.2 477.422 224.2V223.2ZM553.322 96.2L553.137 95.7355L552.822 95.8609V96.2H553.322ZM553.322 104.3H552.822V104.789L553.311 104.8L553.322 104.3ZM572.822 218.9L572.911 219.392L573.322 219.317V218.9H572.822ZM556.322 221.9L556.232 221.408L555.822 221.483V221.9H556.322ZM556.322 230H555.822V230.5H556.322V230ZM617.222 230V230.5H617.722V230H617.222ZM617.222 221.9H617.722V221.493L617.324 221.411L617.222 221.9ZM602.822 218.9H602.322V219.307L602.72 219.389L602.822 218.9ZM602.822 122.3L602.454 121.961L602.322 122.105V122.3H602.822ZM658.922 218.9L659.024 219.389L659.422 219.307V218.9H658.922ZM644.522 221.9L644.42 221.411L644.022 221.493V221.9H644.522ZM644.522 230H644.022V230.5H644.522V230ZM703.322 230V230.5H703.822V230H703.322ZM703.322 221.9H703.822V221.493L703.424 221.411L703.322 221.9ZM688.922 218.9H688.422V219.307L688.82 219.389L688.922 218.9ZM601.322 107L600.837 107.121L601.074 108.069L601.704 107.323L601.322 107ZM588.722 82.1L589.055 81.7274L588.825 81.5209L588.537 81.6355L588.722 82.1ZM552.822 96.2V104.3H553.822V96.2H552.822ZM553.311 104.8C560.358 104.95 565.032 105.931 567.99 109.174C570.963 112.434 572.322 118.105 572.322 128H573.322C573.322 118.095 571.981 112.066 568.729 108.501C565.462 104.919 560.386 103.95 553.333 103.8L553.311 104.8ZM572.322 128V218.9H573.322V128H572.322ZM572.732 218.408L556.232 221.408L556.411 222.392L572.911 219.392L572.732 218.408ZM555.822 221.9V230H556.822V221.9H555.822ZM556.322 230.5H617.222V229.5H556.322V230.5ZM617.722 230V221.9H616.722V230H617.722ZM617.324 221.411L602.924 218.411L602.72 219.389L617.12 222.389L617.324 221.411ZM603.322 218.9V122.3H602.322V218.9H603.322ZM603.19 122.639C608.459 116.917 612.315 112.544 616.498 109.583C620.646 106.647 625.119 105.1 631.622 105.1V104.1C624.925 104.1 620.248 105.703 615.92 108.767C611.628 111.806 607.684 116.283 602.454 121.961L603.19 122.639ZM631.622 105.1C640.504 105.1 647.183 108.056 651.647 113.106C656.12 118.165 658.422 125.384 658.422 134H659.422C659.422 125.216 657.074 117.735 652.396 112.444C647.711 107.144 640.739 104.1 631.622 104.1V105.1ZM658.422 134V218.9H659.422V134H658.422ZM658.82 218.411L644.42 221.411L644.624 222.389L659.024 219.389L658.82 218.411ZM644.022 221.9V230H645.022V221.9H644.022ZM644.522 230.5H703.322V229.5H644.522V230.5ZM703.822 230V221.9H702.822V230H703.822ZM703.424 221.411L689.024 218.411L688.82 219.389L703.22 222.389L703.424 221.411ZM689.422 218.9V131H688.422V218.9H689.422ZM689.422 131C689.422 115.756 685.044 103.398 677.101 94.8472C669.154 86.2918 657.687 81.6 643.622 81.6V82.6C657.456 82.6 668.64 87.2082 676.368 95.5278C684.1 103.852 688.422 115.944 688.422 131H689.422ZM643.622 81.6C636.296 81.6 628.479 84.4966 621.084 89.062C613.684 93.6307 606.67 99.8923 600.94 106.677L601.704 107.323C607.374 100.608 614.31 94.4193 621.61 89.9129C628.914 85.4034 636.548 82.6 643.622 82.6V81.6ZM601.807 106.879C600.749 102.647 599.013 97.6655 596.823 93.0964C594.637 88.5368 591.978 84.3423 589.055 81.7274L588.388 82.4726C591.166 84.9576 593.757 89.0132 595.921 93.5286C598.081 98.0345 599.795 102.953 600.837 107.121L601.807 106.879ZM588.537 81.6355L553.137 95.7355L553.507 96.6645L588.907 82.5645L588.537 81.6355ZM830.121 198.2L830.536 198.478L830.796 198.091L830.428 197.805L830.121 198.2ZM822.021 191.9L822.328 191.505L821.942 191.205L821.633 191.584L822.021 191.9ZM746.721 161.3L746.592 160.817L746.201 160.921L746.222 161.326L746.721 161.3ZM829.821 139.1L829.95 139.583L830.321 139.484V139.1H829.821ZM745.221 148.7L744.721 148.696L744.716 149.351L745.349 149.183L745.221 148.7ZM779.121 139.7L779.249 140.183L779.252 140.183L779.121 139.7ZM777.621 81.6C756.25 81.6 741.032 93.5103 731.181 109.816C721.337 126.11 716.821 146.828 716.821 164.6H717.821C717.821 146.972 722.305 126.44 732.037 110.334C741.76 94.2397 756.692 82.6 777.621 82.6V81.6ZM716.821 164.6C716.821 202.844 739.129 234.7 772.521 234.7V233.7C739.913 233.7 717.821 202.556 717.821 164.6H716.821ZM772.521 234.7C784.303 234.7 794.522 232.055 803.948 226.187C813.366 220.324 821.963 211.263 830.536 198.478L829.706 197.922C821.179 210.637 812.676 219.576 803.419 225.338C794.171 231.095 784.14 233.7 772.521 233.7V234.7ZM830.428 197.805L822.328 191.505L821.714 192.295L829.814 198.595L830.428 197.805ZM821.633 191.584C815.037 199.679 810.209 204.569 805.378 207.445C800.571 210.307 795.721 211.2 789.021 211.2V212.2C795.821 212.2 800.871 211.293 805.889 208.305C810.883 205.331 815.805 200.321 822.409 192.216L821.633 191.584ZM789.021 211.2C764.797 211.2 748.713 189.935 747.22 161.274L746.222 161.326C747.729 190.265 764.045 212.2 789.021 212.2V211.2ZM746.85 161.783L829.95 139.583L829.692 138.617L746.592 160.817L746.85 161.783ZM830.321 139.1C830.321 112.83 811.593 81.6 777.621 81.6V82.6C810.849 82.6 829.321 113.17 829.321 139.1H830.321ZM745.721 148.704C745.871 129.693 748.866 115.759 753.725 106.597C758.576 97.4513 765.253 93.1 772.821 93.1V92.1C764.789 92.1 757.816 96.7487 752.842 106.128C747.876 115.491 744.871 129.607 744.721 148.696L745.721 148.704ZM772.821 93.1C786.552 93.1 795.421 105.073 795.421 119.9H796.421C796.421 104.727 787.29 92.1 772.821 92.1V93.1ZM795.421 119.9C795.421 126.891 794.007 130.932 791.33 133.609C788.625 136.314 784.555 137.713 778.991 139.217L779.252 140.183C784.787 138.687 789.117 137.236 792.037 134.316C794.985 131.368 796.421 127.009 796.421 119.9H795.421ZM778.993 139.217L745.093 148.217L745.349 149.183L779.249 140.183L778.993 139.217ZM831.122 93.5L830.975 93.0219L830.622 93.1303V93.5H831.122ZM831.122 101.6H830.622V102.071L831.093 102.099L831.122 101.6ZM864.722 149L864.257 149.184L864.257 149.184L864.722 149ZM896.822 230L897.295 230.161L897.354 229.987L897.287 229.816L896.822 230ZM925.322 201.5L924.867 201.293L924.866 201.294L925.322 201.5ZM943.322 123.5L943.806 123.625L943.906 123.239L943.551 123.056L943.322 123.5ZM914.522 196.1L914.058 196.288L914.489 197.35L914.975 196.312L914.522 196.1ZM868.322 82.1L868.785 81.9122L868.613 81.4877L868.175 81.6219L868.322 82.1ZM830.622 93.5V101.6H831.622V93.5H830.622ZM831.093 102.099C834.889 102.322 837.828 102.879 840.363 104.178C842.891 105.473 845.063 107.532 847.282 110.841C851.743 117.496 856.295 129.053 864.257 149.184L865.187 148.816C857.249 128.747 852.65 117.054 848.112 110.284C845.83 106.88 843.541 104.683 840.819 103.288C838.104 101.896 835.004 101.328 831.151 101.101L831.093 102.099ZM864.257 149.184L896.357 230.184L897.287 229.816L865.187 148.816L864.257 149.184ZM896.348 229.839C893.352 238.677 890.665 244.942 888.326 248.987C887.157 251.012 886.086 252.458 885.125 253.393C884.155 254.336 883.356 254.7 882.722 254.7V255.7C883.738 255.7 884.776 255.127 885.822 254.11C886.876 253.085 888 251.551 889.192 249.488C891.579 245.358 894.291 239.023 897.295 230.161L896.348 229.839ZM882.722 254.7C881.824 254.7 880.74 254.457 879.414 254.064C878.061 253.664 876.615 253.161 874.842 252.622C871.369 251.564 867.041 250.5 861.722 250.5V251.5C866.903 251.5 871.125 252.536 874.551 253.578C876.228 254.089 877.82 254.636 879.13 255.023C880.466 255.418 881.669 255.7 882.722 255.7V254.7ZM861.722 250.5C856.218 250.5 851.946 252.185 849.055 255.31C846.169 258.43 844.722 262.917 844.722 268.4H845.722C845.722 263.083 847.124 258.87 849.789 255.99C852.448 253.115 856.426 251.5 861.722 251.5V250.5ZM844.722 268.4C844.722 273.486 846.581 277.548 850.404 280.317C854.2 283.068 859.872 284.5 867.422 284.5V283.5C859.972 283.5 854.544 282.082 850.99 279.508C847.463 276.952 845.722 273.214 845.722 268.4H844.722ZM867.422 284.5C873.363 284.5 880.243 280.813 889.457 268.703C898.68 256.581 910.324 235.914 925.778 201.706L924.866 201.294C909.42 235.486 897.814 256.069 888.661 268.097C879.501 280.137 872.88 283.5 867.422 283.5V284.5ZM925.777 201.707C938.231 174.249 947.386 151.961 953.43 135.144C956.452 126.736 958.697 119.69 960.188 114.046C961.676 108.413 962.422 104.143 962.422 101.3H961.422C961.422 104.007 960.705 108.174 959.221 113.791C957.74 119.397 955.505 126.414 952.489 134.806C946.457 151.589 937.313 173.851 924.867 201.293L925.777 201.707ZM962.422 101.3C962.422 95.0642 960.748 90.1247 957.521 86.7424C954.291 83.3565 949.571 81.6 943.622 81.6V82.6C949.373 82.6 953.803 84.2935 956.798 87.4326C959.796 90.5752 961.422 95.2358 961.422 101.3H962.422ZM943.622 81.6C937.979 81.6 933.262 83.2027 929.956 86.5089C926.649 89.8157 924.822 94.7585 924.822 101.3H925.822C925.822 94.9415 927.595 90.2843 930.663 87.216C933.732 84.1473 938.164 82.6 943.622 82.6V81.6ZM924.822 101.3C924.822 105.955 926.917 110.342 930.231 114.189C933.545 118.036 938.101 121.373 943.093 123.944L943.551 123.056C938.643 120.527 934.199 117.264 930.988 113.536C927.777 109.808 925.822 105.645 925.822 101.3H924.822ZM942.838 123.375C938.65 139.528 929.366 163.194 914.069 195.888L914.975 196.312C930.277 163.606 939.594 139.872 943.806 123.625L942.838 123.375ZM914.985 195.912L868.785 81.9122L867.858 82.2878L914.058 196.288L914.985 195.912ZM868.175 81.6219L830.975 93.0219L831.268 93.9781L868.468 82.578L868.175 81.6219ZM1000.42 85.7L999.935 85.8091L999.935 85.8104L1000.42 85.7ZM1007.32 172.1H1006.82V172.6H1007.32V172.1ZM1017.52 172.1V172.6H1018.02V172.1H1017.52ZM1023.82 88.7L1023.34 88.5895L1023.33 88.5915L1023.82 88.7ZM1010.92 192.9C999.547 192.9 990.623 201.824 990.623 213.2H991.623C991.623 202.376 1000.1 193.9 1010.92 193.9V192.9ZM990.623 213.2C990.623 224.576 999.547 233.5 1010.92 233.5V232.5C1000.1 232.5 991.623 224.024 991.623 213.2H990.623ZM1010.92 233.5C1021.99 233.5 1031.22 224.581 1031.22 213.2H1030.22C1030.22 224.019 1021.45 232.5 1010.92 232.5V233.5ZM1031.22 213.2C1031.22 201.819 1021.99 192.9 1010.92 192.9V193.9C1021.45 193.9 1030.22 202.381 1030.22 213.2H1031.22ZM1012.42 15C1005.1 15 999.91 17.4486 996.571 21.9522C993.253 26.4272 991.823 32.8542 991.823 40.7H992.823C992.823 32.9458 994.242 26.7727 997.374 22.5478C1000.49 18.3514 1005.34 16 1012.42 16V15ZM991.823 40.7C991.823 44.9495 992.58 50.5381 993.969 57.8927C995.358 65.2525 997.385 74.4111 999.935 85.8091L1000.91 85.5908C998.36 74.1888 996.337 65.0474 994.951 57.7072C993.565 50.3618 992.823 44.8505 992.823 40.7H991.823ZM999.935 85.8104C1003.52 101.66 1006.82 131.619 1006.82 172.1H1007.82C1007.82 131.581 1004.52 101.54 1000.91 85.5896L999.935 85.8104ZM1007.32 172.6H1017.52V171.6H1007.32V172.6ZM1018.02 172.1C1018.02 134.014 1020.72 104.956 1024.31 88.8085L1023.33 88.5915C1019.72 104.844 1017.02 133.986 1017.02 172.1H1018.02ZM1024.31 88.8105C1029.4 66.3428 1033.02 50.6712 1033.02 40.1H1032.02C1032.02 50.5288 1028.44 66.0572 1023.34 88.5895L1024.31 88.8105ZM1033.02 40.1C1033.02 32.5507 1031.59 26.2734 1028.27 21.8739C1024.93 17.4481 1019.74 15 1012.42 15V16C1019.5 16 1024.36 18.3519 1027.47 22.4761C1030.6 26.6266 1032.02 32.6492 1032.02 40.1H1033.02Z" fill="#5E5A58"/>
</svg>
