<svg width="20" height="20" viewBox="0 0 20 20" fill="none" xmlns="http://www.w3.org/2000/svg">
<path d="M1.875 10.6328C1.875 11.967 2.81118 13.1284 4.13122 13.3225C5.03631 13.4555 5.95126 13.5583 6.875 13.6297V17.5L10.2001 14.1749C10.4757 13.8993 10.8479 13.7431 11.2375 13.7312C12.8056 13.6836 14.351 13.5457 15.8687 13.3226C17.1888 13.1285 18.125 11.9671 18.125 10.6329V5.61713C18.125 4.28288 17.1888 3.12152 15.8687 2.92745C13.9534 2.64584 11.9938 2.5 10.0002 2.5C8.00647 2.5 6.04676 2.64587 4.13122 2.92752C2.81118 3.12161 1.875 4.28297 1.875 5.6172V10.6328Z" stroke="#0F172A" stroke-linecap="round" stroke-linejoin="round"/>
</svg>
