<svg width="13" height="13" viewBox="0 0 13 13" fill="none" xmlns="http://www.w3.org/2000/svg">
<path fill-rule="evenodd" clip-rule="evenodd" d="M3.87119 0.412772C4.14731 0.146516 4.51805 0 4.90098 0C5.28391 0 5.65466 0.146516 5.93078 0.412772C6.20751 0.679626 6.3665 1.04551 6.3665 1.43104V3.07386C6.51562 3.0251 6.67277 2.99976 6.83204 2.99976C7.16087 2.99976 7.48072 3.1078 7.73937 3.30693C8.01484 3.04437 8.38295 2.9 8.76307 2.9C8.92232 2.9 9.07947 2.92534 9.22858 2.9741V2.43104C9.22858 2.04551 9.38757 1.67963 9.6643 1.41277C9.94042 1.14652 10.3112 1 10.6941 1C11.077 1 11.4478 1.14652 11.7239 1.41277C12.0006 1.67963 12.1596 2.04551 12.1596 2.43104V6.84484H12.1596V7.80395C12.1596 8.53561 11.9892 9.25723 11.662 9.91164C10.8637 11.5083 9.23179 12.5169 7.44668 12.5169L7.3192 12.5169C5.64197 12.5169 4.08033 11.6623 3.17611 10.2497L3.04318 10.042C2.87339 9.77676 2.67542 9.53063 2.45272 9.30793L0.412156 7.26737C0.13955 6.99477 -0.00674933 6.62362 0.000239287 6.23925C0.00721236 5.85573 0.165766 5.48997 0.436539 5.2192C0.707313 4.94843 1.07307 4.78987 1.45659 4.7829C1.83659 4.77599 2.20366 4.9189 2.47537 5.18556L3.43542 6.0587L3.43542 2.36169H3.43546V1.43104C3.43546 1.04551 3.59445 0.679625 3.87119 0.412772ZM11.1596 6.54561V2.43104C11.1596 2.32271 11.1152 2.21497 11.0298 2.13262C10.9437 2.04967 10.8233 2 10.6941 2C10.5649 2 10.4445 2.04967 10.3584 2.13262C10.273 2.21497 10.2286 2.32271 10.2286 2.43104V4.32587C10.2286 4.32759 10.2286 4.32931 10.2286 4.33104V5.74484H10.2286V6H9.22858V4.32829C9.22783 4.22089 9.18341 4.11427 9.09872 4.03262C9.0127 3.94967 8.89228 3.9 8.76307 3.9C8.63385 3.9 8.51343 3.94967 8.42741 4.03262C8.342 4.11497 8.29755 4.22271 8.29755 4.33104V4.42562L8.29756 4.43079V6H8.29755V6.0001H7.29755V4.42804C7.2968 4.32064 7.25238 4.21403 7.16769 4.13237C7.08167 4.04942 6.96125 3.99976 6.83204 3.99976C6.70282 3.99976 6.5824 4.04942 6.49638 4.13237C6.41097 4.21473 6.36652 4.32246 6.36652 4.43079V6H5.36652V4.43079C5.36652 4.40781 5.36708 4.3849 5.3682 4.36208H5.3665V1.43104C5.3665 1.32271 5.32204 1.21497 5.23664 1.13262C5.15062 1.04967 5.03019 1 4.90098 1C4.77177 1 4.65135 1.04967 4.56532 1.13262C4.47992 1.21497 4.43546 1.32271 4.43546 1.43104V2.43104H4.43542V6.73706C4.43542 7.34483 3.71407 7.66384 3.26445 7.25492L1.78598 5.9103L1.77761 5.90192C1.70101 5.82532 1.59339 5.78058 1.47477 5.78273C1.35528 5.78491 1.23501 5.83494 1.14365 5.92631C1.05228 6.01767 1.00225 6.13794 1.00007 6.25743C0.997917 6.37605 1.04266 6.48367 1.11926 6.56027L3.15982 8.60083C3.43349 8.87449 3.67676 9.17694 3.88541 9.5029L4.01834 9.71057C4.73874 10.836 5.98293 11.5169 7.3192 11.5169H7.44668C8.85302 11.5169 10.1387 10.7223 10.7676 9.46443C11.0254 8.94887 11.1596 8.38037 11.1596 7.80395L11.1596 6.54561H11.1596Z" fill="#292929"/>
</svg>
