<svg width="16" height="17" viewBox="0 0 16 17" fill="none" xmlns="http://www.w3.org/2000/svg">
<path d="M14 0.666992H2C0.89543 0.666992 0 1.56242 0 2.66699V14.667C0 15.7716 0.89543 16.667 2 16.667H14C15.1046 16.667 16 15.7716 16 14.667V2.66699C16 1.56242 15.1046 0.666992 14 0.666992Z" fill="#3356F2"/>
<path d="M8.6953 9.94649V9.04899C9.9313 8.84949 11 7.96449 11 6.55589C11 5.04759 9.7897 4.00049 7.9614 4.00049C6.1845 4.00049 5.2961 4.99769 5 5.99489L6.5708 6.63069C6.7382 6.00739 7.2017 5.57109 7.897 5.57109C8.515 5.57109 8.9914 5.85779 8.9914 6.54339V6.71789C8.9914 7.66529 8.1803 7.98939 6.8927 8.03929V9.94649H8.6953ZM7.8197 13.0005C8.7339 13.0005 9.0944 12.5642 9.0944 12.0282V11.6293C9.0944 11.1058 8.7339 10.6695 7.8197 10.6695C6.9185 10.6695 6.5579 11.1058 6.5579 11.6293V12.0282C6.5579 12.5642 6.9185 13.0005 7.8197 13.0005Z" fill="white"/>
</svg>
