<svg width="16" height="16" viewBox="0 0 16 16" fill="none" xmlns="http://www.w3.org/2000/svg">
<rect width="16" height="16" fill="none"/>
<path d="M8.69528 9.27948V8.38197C9.93133 8.18253 11 7.29748 11 5.8889C11 4.38059 9.7897 3.3335 7.96137 3.3335C6.18455 3.3335 5.29614 4.33073 5 5.32796L6.57082 5.96369C6.7382 5.34042 7.20172 4.90413 7.897 4.90413C8.51502 4.90413 8.99142 5.19084 8.99142 5.87643V6.05095C8.99142 6.99832 8.18026 7.32242 6.8927 7.37228V9.27948H8.69528ZM7.81974 12.3335C8.73391 12.3335 9.09442 11.8972 9.09442 11.3612V10.9623C9.09442 10.4388 8.73391 10.0025 7.81974 10.0025C6.91845 10.0025 6.55794 10.4388 6.55794 10.9623V11.3612C6.55794 11.8972 6.91845 12.3335 7.81974 12.3335Z" fill="#292929"/>
</svg>
