<svg width="30" height="30" viewBox="0 0 30 30" fill="none" xmlns="http://www.w3.org/2000/svg">
<path d="M24 0H6C2.68629 0 0 2.68629 0 6V24C0 27.3137 2.68629 30 6 30H24C27.3137 30 30 27.3137 30 24V6C30 2.68629 27.3137 0 24 0Z" fill="#3356F2"/>
<path d="M12.188 8.4375C12.188 6.36643 10.5091 4.6875 8.43799 4.6875C6.36692 4.6875 4.68799 6.36643 4.68799 8.4375C4.68799 10.5086 6.36692 12.1875 8.43799 12.1875C10.5091 12.1875 12.188 10.5086 12.188 8.4375Z" fill="white"/>
<path d="M18.75 15C18.75 12.9289 17.0711 11.25 15 11.25C12.9289 11.25 11.25 12.9289 11.25 15C11.25 17.0711 12.9289 18.75 15 18.75C17.0711 18.75 18.75 17.0711 18.75 15Z" fill="white"/>
<path d="M25.313 21.5625C25.313 19.4914 23.6341 17.8125 21.563 17.8125C19.4919 17.8125 17.813 19.4914 17.813 21.5625C17.813 23.6336 19.4919 25.3125 21.563 25.3125C23.6341 25.3125 25.313 23.6336 25.313 21.5625Z" fill="white"/>
</svg>
