<svg width="30" height="30" viewBox="0 0 30 30" fill="none" xmlns="http://www.w3.org/2000/svg">
<g filter="url(#filter0_ii_509_350)">
<path d="M24 0H6C2.68629 0 0 2.68629 0 6V24C0 27.3137 2.68629 30 6 30H24C27.3137 30 30 27.3137 30 24V6C30 2.68629 27.3137 0 24 0Z" fill="#3356F2"/>
</g>
<path d="M11 7C11 5.34315 9.65685 4 8 4C6.34315 4 5 5.34315 5 7C5 8.65685 6.34315 10 8 10C9.65685 10 11 8.65685 11 7Z" fill="white"/>
<path d="M11 15C11 13.3431 9.65685 12 8 12C6.34315 12 5 13.3431 5 15C5 16.6569 6.34315 18 8 18C9.65685 18 11 16.6569 11 15Z" fill="white"/>
<path d="M11 23C11 21.3431 9.65685 20 8 20C6.34315 20 5 21.3431 5 23C5 24.6569 6.34315 26 8 26C9.65685 26 11 24.6569 11 23Z" fill="white"/>
<path d="M25 7C25 5.34315 23.6569 4 22 4C20.3431 4 19 5.34315 19 7C19 8.65685 20.3431 10 22 10C23.6569 10 25 8.65685 25 7Z" fill="white"/>
<path d="M25 15C25 13.3431 23.6569 12 22 12C20.3431 12 19 13.3431 19 15C19 16.6569 20.3431 18 22 18C23.6569 18 25 16.6569 25 15Z" fill="white"/>
<path d="M25 23C25 21.3431 23.6569 20 22 20C20.3431 20 19 21.3431 19 23C19 24.6569 20.3431 26 22 26C23.6569 26 25 24.6569 25 23Z" fill="white"/>
<defs>
<filter id="filter0_ii_509_350" x="0" y="0" width="30" height="30" filterUnits="userSpaceOnUse" color-interpolation-filters="sRGB">
<feFlood flood-opacity="0" result="BackgroundImageFix"/>
<feBlend mode="normal" in="SourceGraphic" in2="BackgroundImageFix" result="shape"/>
<feColorMatrix in="SourceAlpha" type="matrix" values="0 0 0 0 0 0 0 0 0 0 0 0 0 0 0 0 0 0 127 0" result="hardAlpha"/>
<feOffset/>
<feGaussianBlur stdDeviation="5"/>
<feComposite in2="hardAlpha" operator="arithmetic" k2="-1" k3="1"/>
<feColorMatrix type="matrix" values="0 0 0 0 0 0 0 0 0 0 0 0 0 0 0 0 0 0 0.1 0"/>
<feBlend mode="normal" in2="shape" result="effect1_innerShadow_509_350"/>
<feColorMatrix in="SourceAlpha" type="matrix" values="0 0 0 0 0 0 0 0 0 0 0 0 0 0 0 0 0 0 127 0" result="hardAlpha"/>
<feOffset/>
<feGaussianBlur stdDeviation="2"/>
<feComposite in2="hardAlpha" operator="arithmetic" k2="-1" k3="1"/>
<feColorMatrix type="matrix" values="0 0 0 0 0 0 0 0 0 0 0 0 0 0 0 0 0 0 0.1 0"/>
<feBlend mode="normal" in2="effect1_innerShadow_509_350" result="effect2_innerShadow_509_350"/>
</filter>
</defs>
</svg>
