<svg width="30" height="30" viewBox="0 0 30 30" fill="none" xmlns="http://www.w3.org/2000/svg">
<path d="M24 0H6C2.68629 0 0 2.68629 0 6V24C0 27.3137 2.68629 30 6 30H24C27.3137 30 30 27.3137 30 24V6C30 2.68629 27.3137 0 24 0Z" fill="#3356F2"/>
<path d="M12.188 8.4375C12.188 6.36643 10.5091 4.6875 8.43799 4.6875C6.36692 4.6875 4.68799 6.36643 4.68799 8.4375C4.68799 10.5086 6.36692 12.1875 8.43799 12.1875C10.5091 12.1875 12.188 10.5086 12.188 8.4375Z" fill="white"/>
<path d="M25.313 8.4375C25.313 6.36643 23.6341 4.6875 21.563 4.6875C19.4919 4.6875 17.813 6.36643 17.813 8.4375C17.813 10.5086 19.4919 12.1875 21.563 12.1875C23.6341 12.1875 25.313 10.5086 25.313 8.4375Z" fill="white"/>
<path d="M25.313 21.5625C25.313 19.4914 23.6341 17.8125 21.563 17.8125C19.4919 17.8125 17.813 19.4914 17.813 21.5625C17.813 23.6336 19.4919 25.3125 21.563 25.3125C23.6341 25.3125 25.313 23.6336 25.313 21.5625Z" fill="white"/>
<path d="M12.188 21.5625C12.188 19.4914 10.5091 17.8125 8.43799 17.8125C6.36692 17.8125 4.68799 19.4914 4.68799 21.5625C4.68799 23.6336 6.36692 25.3125 8.43799 25.3125C10.5091 25.3125 12.188 23.6336 12.188 21.5625Z" fill="white"/>
</svg>
