<svg width="30" height="30" viewBox="0 0 30 30" fill="none" xmlns="http://www.w3.org/2000/svg">
<path d="M24 0H6C2.68629 0 0 2.68629 0 6V24C0 27.3137 2.68629 30 6 30H24C27.3137 30 30 27.3137 30 24V6C30 2.68629 27.3137 0 24 0Z" fill="#3356F2"/>
<path d="M11.6891 8.4375C11.6891 6.36643 10.0102 4.6875 7.93909 4.6875C5.86802 4.6875 4.18909 6.36643 4.18909 8.4375C4.18909 10.5086 5.86802 12.1875 7.93909 12.1875C10.0102 12.1875 11.6891 10.5086 11.6891 8.4375Z" fill="white"/>
<path d="M24.8142 8.4375C24.8142 6.36643 23.1353 4.6875 21.0642 4.6875C18.9931 4.6875 17.3142 6.36643 17.3142 8.4375C17.3142 10.5086 18.9931 12.1875 21.0642 12.1875C23.1353 12.1875 24.8142 10.5086 24.8142 8.4375Z" fill="white"/>
<path d="M18.2516 15C18.2516 12.9289 16.5727 11.25 14.5016 11.25C12.4305 11.25 10.7516 12.9289 10.7516 15C10.7516 17.0711 12.4305 18.75 14.5016 18.75C16.5727 18.75 18.2516 17.0711 18.2516 15Z" fill="white"/>
<path d="M11.6891 21.5625C11.6891 19.4914 10.0102 17.8125 7.93909 17.8125C5.86802 17.8125 4.18909 19.4914 4.18909 21.5625C4.18909 23.6336 5.86802 25.3125 7.93909 25.3125C10.0102 25.3125 11.6891 23.6336 11.6891 21.5625Z" fill="white"/>
<path d="M24.8142 21.5625C24.8142 19.4914 23.1353 17.8125 21.0642 17.8125C18.9931 17.8125 17.3142 19.4914 17.3142 21.5625C17.3142 23.6336 18.9931 25.3125 21.0642 25.3125C23.1353 25.3125 24.8142 23.6336 24.8142 21.5625Z" fill="white"/>
</svg>
