<svg width="30" height="30" viewBox="0 0 30 30" fill="none" xmlns="http://www.w3.org/2000/svg">
<path d="M24 0H6C2.68629 0 0 2.68629 0 6V24C0 27.3137 2.68629 30 6 30H24C27.3137 30 30 27.3137 30 24V6C30 2.68629 27.3137 0 24 0Z" fill="#3356F2"/>
<path d="M12.1876 8.4375C12.1876 6.36643 10.5087 4.6875 8.43759 4.6875C6.36652 4.6875 4.68759 6.36643 4.68759 8.4375C4.68759 10.5086 6.36652 12.1875 8.43759 12.1875C10.5087 12.1875 12.1876 10.5086 12.1876 8.4375Z" fill="white"/>
<path d="M25.3126 21.5625C25.3126 19.4914 23.6337 17.8125 21.5626 17.8125C19.4915 17.8125 17.8126 19.4914 17.8126 21.5625C17.8126 23.6336 19.4915 25.3125 21.5626 25.3125C23.6337 25.3125 25.3126 23.6336 25.3126 21.5625Z" fill="white"/>
</svg>
