<svg width="12" height="3" viewBox="0 0 12 3" fill="none" xmlns="http://www.w3.org/2000/svg">
<path fill-rule="evenodd" clip-rule="evenodd" d="M1.2 2.4C1.86274 2.4 2.4 1.86274 2.4 1.2C2.4 0.537258 1.86274 0 1.2 0C0.537258 0 0 0.537258 0 1.2C0 1.86274 0.537258 2.4 1.2 2.4ZM6 2.4C6.66274 2.4 7.2 1.86274 7.2 1.2C7.2 0.537258 6.66274 0 6 0C5.33726 0 4.8 0.537258 4.8 1.2C4.8 1.86274 5.33726 2.4 6 2.4ZM12 1.2C12 1.86274 11.4627 2.4 10.8 2.4C10.1373 2.4 9.6 1.86274 9.6 1.2C9.6 0.537258 10.1373 0 10.8 0C11.4627 0 12 0.537258 12 1.2Z" fill="#292929"/>
</svg>
