<svg width="20" height="20" viewBox="0 0 20 20" fill="none" xmlns="http://www.w3.org/2000/svg">
<g clip-path="url(#clip0_475_12384)">
<path fill-rule="evenodd" clip-rule="evenodd" d="M5.55544 3.34824C6.87103 2.46919 8.41775 2 10 2C12.1217 2 14.1566 2.84285 15.6569 4.34315C17.1571 5.84344 18 7.87827 18 10C18 11.5822 17.5308 13.129 16.6518 14.4446C15.7727 15.7602 14.5233 16.7855 13.0615 17.391C11.5997 17.9965 9.99113 18.155 8.43928 17.8463C6.88743 17.5376 5.46197 16.7757 4.34315 15.6569C3.22433 14.538 2.4624 13.1126 2.15372 11.5607C1.84504 10.0089 2.00347 8.40034 2.60897 6.93853C3.21447 5.47672 4.23985 4.22729 5.55544 3.34824ZM6.19038 15.7015C7.31803 16.455 8.64379 16.8571 10 16.8571C11.8186 16.8571 13.5628 16.1347 14.8487 14.8487C16.1347 13.5628 16.8571 11.8186 16.8571 10C16.8571 8.64378 16.455 7.31803 15.7015 6.19037C14.948 5.06272 13.8771 4.18383 12.6241 3.66483C11.3711 3.14582 9.9924 3.01003 8.66224 3.27461C7.33209 3.5392 6.11026 4.19228 5.15127 5.15127C4.19228 6.11026 3.5392 7.33208 3.27462 8.66224C3.01003 9.99239 3.14583 11.3711 3.66483 12.6241C4.18383 13.8771 5.06273 14.948 6.19038 15.7015ZM10.8572 14.2857C10.8572 14.7591 10.4735 15.1429 10.0001 15.1429C9.52668 15.1429 9.14293 14.7591 9.14293 14.2857C9.14293 13.8123 9.52668 13.4286 10.0001 13.4286C10.4735 13.4286 10.8572 13.8123 10.8572 14.2857Z" fill="#292929"/>
<rect x="9.20001" y="6" width="1.5" height="6" fill="#292929"/>
</g>
<defs>
<clipPath id="clip0_475_12384">
<rect width="20" height="20" fill="white"/>
</clipPath>
</defs>
</svg>
