<svg width="16" height="16" viewBox="0 0 16 16" fill="none" xmlns="http://www.w3.org/2000/svg">
<path d="M1.35704 8.21493C1.31098 8.07676 1.31094 7.92716 1.35691 7.78895C2.28249 5.00648 4.9072 3 8.00054 3C11.0925 3 13.7162 5.00462 14.6429 7.78507C14.6889 7.92325 14.689 8.07285 14.643 8.21105C13.7174 10.9935 11.0927 13 7.99938 13C4.90747 13 2.28376 10.9954 1.35704 8.21493Z" stroke="#333333" stroke-linecap="round" stroke-linejoin="round"/>
<path d="M10 8C10 9.10457 9.10457 10 8 10C6.89543 10 6 9.10457 6 8C6 6.89543 6.89543 6 8 6C9.10457 6 10 6.89543 10 8Z" stroke="#333333" stroke-linecap="round" stroke-linejoin="round"/>
</svg>
