<svg width="20" height="20" viewBox="0 0 20 20" fill="none" xmlns="http://www.w3.org/2000/svg">
<g clip-path="url(#clip0_157_125)">
<path d="M10.625 11.875H9.375V13.125H10.625V11.875Z" fill="#292929"/>
<path d="M10.625 14.375H9.375V15.625H10.625V14.375Z" fill="#292929"/>
<path d="M14.375 7.29375V2.5H16.25V1.25H3.75V2.5H5.625V7.29375C5.625 7.56421 5.71272 7.82738 5.875 8.04375L7.34375 10L5.875 11.9562C5.71272 12.1726 5.625 12.4358 5.625 12.7063V17.5H3.75V18.75H16.25V17.5H14.375V12.7063C14.375 12.4358 14.2873 12.1726 14.125 11.9562L12.6562 10L14.125 8.04375C14.2873 7.82738 14.375 7.56421 14.375 7.29375ZM13.125 2.5V6.875H6.875V2.5H13.125ZM13.125 12.7063V17.5H6.875V12.7063L8.90625 10L7.5 8.125H12.5L11.0938 10L13.125 12.7063Z" fill="#292929"/>
</g>
<defs>
<clipPath id="clip0_157_125">
<rect width="20" height="20" fill="white"/>
</clipPath>
</defs>
</svg>
