<svg width="20" height="20" viewBox="0 0 20 20" fill="none" xmlns="http://www.w3.org/2000/svg">
<g clip-path="url(#clip0_373_3872)">
<path fill-rule="evenodd" clip-rule="evenodd" d="M10 2C8.41775 2 6.87103 2.46919 5.55544 3.34824C4.23985 4.22729 3.21447 5.47672 2.60897 6.93853C2.00347 8.40034 1.84504 10.0089 2.15372 11.5607C2.4624 13.1126 3.22433 14.538 4.34315 15.6569C5.46197 16.7757 6.88743 17.5376 8.43928 17.8463C9.99113 18.155 11.5997 17.9965 13.0615 17.391C14.5233 16.7855 15.7727 15.7602 16.6518 14.4446C17.5308 13.129 18 11.5822 18 10C18 7.87827 17.1571 5.84344 15.6569 4.34315C14.1566 2.84285 12.1217 2 10 2ZM10 16.8571C8.64379 16.8571 7.31803 16.455 6.19038 15.7015C5.06273 14.948 4.18383 13.8771 3.66483 12.6241C3.14583 11.3711 3.01003 9.99239 3.27462 8.66224C3.5392 7.33208 4.19228 6.11026 5.15127 5.15127C6.11026 4.19228 7.33209 3.5392 8.66224 3.27461C9.9924 3.01003 11.3711 3.14582 12.6241 3.66483C13.8771 4.18383 14.948 5.06272 15.7015 6.19037C16.455 7.31803 16.8571 8.64378 16.8571 10C16.8571 11.8186 16.1347 13.5628 14.8487 14.8487C13.5628 16.1347 11.8186 16.8571 10 16.8571ZM10.0001 15.1429C10.4735 15.1429 10.8572 14.7591 10.8572 14.2857C10.8572 13.8123 10.4735 13.4286 10.0001 13.4286C9.52668 13.4286 9.14293 13.8123 9.14293 14.2857C9.14293 14.7591 9.52668 15.1429 10.0001 15.1429ZM9.71436 5.42858H10.5715C11.2535 5.42858 11.9075 5.6995 12.3898 6.18173C12.872 6.66397 13.1429 7.31802 13.1429 8.00001C13.1429 8.68199 12.872 9.33604 12.3898 9.81828C11.9075 10.3005 11.2535 10.5714 10.5715 10.5714V12H9.42865V9.42858H10.5715C10.9504 9.42858 11.3137 9.27807 11.5817 9.01016C11.8496 8.74225 12.0001 8.37889 12.0001 8.00001C12.0001 7.62113 11.8496 7.25776 11.5817 6.98985C11.3137 6.72194 10.9504 6.57143 10.5715 6.57143H9.71436C9.33548 6.57143 8.97212 6.72194 8.70421 6.98985C8.4363 7.25776 8.28579 7.62113 8.28579 8.00001V8.28572H7.14293V8.00001C7.14218 7.66211 7.20818 7.32739 7.33714 7.01507C7.4661 6.70275 7.65548 6.41898 7.89441 6.18005C8.13334 5.94112 8.41711 5.75174 8.72943 5.62278C9.04175 5.49382 9.37646 5.42782 9.71436 5.42858Z" fill="#292929"/>
</g>
<defs>
<clipPath id="clip0_373_3872">
<rect width="20" height="20" fill="white"/>
</clipPath>
</defs>
</svg>
