<svg width="20" height="20" viewBox="0 0 20 20" fill="none" xmlns="http://www.w3.org/2000/svg">
  <g clip-path="url(#clip0_655_1262)">
    <path
      fill-rule="evenodd"
      clip-rule="evenodd"
      d="M8.80222 3.41277C9.07834 3.14652 9.44908 3 9.83201 3C10.2149 3 10.5857 3.14652 10.8618 3.41277C11.122 3.66365 11.2781 4.00205 11.2958 4.36201C11.4454 4.31289 11.6032 4.28735 11.763 4.28735C12.146 4.28735 12.5167 4.43387 12.7928 4.70013C13.0696 4.96698 13.2286 5.33287 13.2286 5.71839V6.93616C13.3777 6.8874 13.5348 6.86206 13.6941 6.86206C14.077 6.86206 14.4477 7.00858 14.7239 7.27483C15.0006 7.54169 15.1596 7.90757 15.1596 8.2931V11.7069H15.1596V12.8044C15.1596 13.5361 14.9892 14.2577 14.662 14.9121C13.8637 16.5088 12.2318 17.5173 10.4467 17.5173L10.3192 17.5173C8.64197 17.5173 7.08033 16.6628 6.17611 15.2502L6.04318 15.0425C5.87339 14.7772 5.67542 14.5311 5.45272 14.3084L3.41216 12.2679C3.13955 11.9953 2.99325 11.6241 3.00024 11.2397C3.00721 10.8562 3.16577 10.4905 3.43654 10.2197C3.70731 9.94891 4.07307 9.79036 4.45659 9.78339C4.83659 9.77648 5.20366 9.91939 5.47537 10.1861L6.43542 11.0592V7.36218H6.43546V6.36219C6.43546 5.97667 6.59445 5.61078 6.87119 5.34392C7.14731 5.07767 7.51805 4.93115 7.90098 4.93115C8.06024 4.93115 8.21738 4.95649 8.36649 5.00525V4.43104C8.36649 4.04551 8.52548 3.67963 8.80222 3.41277ZM14.1596 11.5461V8.2931C14.1596 8.18477 14.1151 8.07703 14.0297 7.99468C13.9437 7.91173 13.8233 7.86206 13.6941 7.86206C13.5649 7.86206 13.4444 7.91173 13.3584 7.99468C13.2737 8.07633 13.2293 8.18295 13.2286 8.29035V9.13219H12.2286V9H12.2286V8.2931C12.2286 8.29137 12.2286 8.28965 12.2286 8.28793V5.71839C12.2286 5.61006 12.1841 5.50232 12.0987 5.41997C12.0127 5.33702 11.8923 5.28735 11.763 5.28735C11.6338 5.28735 11.5134 5.33702 11.4274 5.41997C11.3427 5.50163 11.2983 5.60824 11.2975 5.71564V7.84484H11.2975V9.29311H10.2975V5.71839L10.2975 5.71322V4.43104C10.2975 4.32271 10.2531 4.21497 10.1677 4.13262C10.0816 4.04967 9.96123 4 9.83201 4C9.7028 4 9.58238 4.04967 9.49635 4.13262C9.41095 4.21497 9.36649 4.32271 9.36649 4.43104V6.35702L9.3665 6.36219V9.29323H8.3665V7.84484H8.36649V6.35944C8.36575 6.25204 8.32132 6.14543 8.23664 6.06377C8.15062 5.98082 8.03019 5.93115 7.90098 5.93115C7.77177 5.93115 7.65135 5.98082 7.56532 6.06377C7.47992 6.14612 7.43546 6.25386 7.43546 6.36219V7.36219H7.43542V11.7375C7.43542 12.3453 6.71407 12.6643 6.26445 12.2554L4.78598 10.9108L4.77761 10.9024C4.70101 10.8258 4.59339 10.7811 4.47477 10.7832C4.35528 10.7854 4.23501 10.8354 4.14365 10.9268C4.05228 11.0182 4.00225 11.1384 4.00007 11.2579C3.99792 11.3765 4.04266 11.4842 4.11926 11.5608L6.15982 13.6013C6.43349 13.875 6.67676 14.1774 6.88541 14.5034L7.01834 14.7111C7.73875 15.8365 8.98293 16.5173 10.3192 16.5173H10.4467C11.853 16.5173 13.1387 15.7228 13.7676 14.4649C14.0254 13.9494 14.1596 13.3809 14.1596 12.8044L14.1596 11.5461H14.1596Z"
      fill="#292929"
    />
    <path
      fill-rule="evenodd"
      clip-rule="evenodd"
      d="M2.56497 17.635L16 4.19995L16.7071 4.90706L3.27208 18.3421L2.56497 17.635Z"
      fill="#292929"
    />
    <path
      fill-rule="evenodd"
      clip-rule="evenodd"
      d="M3.272 18.342L16.707 4.90698L17.4141 5.61409L3.97911 19.0491L3.272 18.342Z"
      fill="#DDDDD9"
    />
  </g>
  <defs>
    <clipPath id="clip0_655_1262">
      <rect width="20" height="20" fill="white" />
    </clipPath>
  </defs>
</svg>
