<svg width="13" height="15" viewBox="0 0 13 15" fill="none" xmlns="http://www.w3.org/2000/svg">
<path fill-rule="evenodd" clip-rule="evenodd" d="M5.80222 0.412772C6.07834 0.146516 6.44908 0 6.83201 0C7.21494 0 7.58569 0.146515 7.86181 0.412772C8.12197 0.663646 8.27807 1.00205 8.29583 1.36201C8.44545 1.31289 8.60318 1.28735 8.76304 1.28735C9.14597 1.28735 9.51672 1.43387 9.79284 1.70013C10.0696 1.96698 10.2286 2.33287 10.2286 2.71839V3.93616C10.3777 3.8874 10.5348 3.86206 10.6941 3.86206C11.077 3.86206 11.4477 4.00858 11.7239 4.27483C12.0006 4.54169 12.1596 4.90757 12.1596 5.2931V8.7069H12.1596V9.80444C12.1596 10.5361 11.9892 11.2577 11.662 11.9121C10.8637 13.5088 9.23179 14.5173 7.44668 14.5173L7.3192 14.5173C5.64197 14.5173 4.08033 13.6628 3.17611 12.2502L3.04318 12.0425C2.87339 11.7772 2.67542 11.5311 2.45272 11.3084L0.412156 9.26786C0.13955 8.99526 -0.00674933 8.62411 0.000239287 8.23974C0.00721236 7.85622 0.165766 7.49046 0.436539 7.21969C0.707313 6.94891 1.07307 6.79036 1.45659 6.78339C1.83659 6.77648 2.20366 6.91939 2.47537 7.18605L3.43542 8.05919V4.36218H3.43546V3.36219C3.43546 2.97667 3.59445 2.61078 3.87119 2.34392C4.14731 2.07767 4.51805 1.93115 4.90098 1.93115C5.06024 1.93115 5.21738 1.95649 5.36649 2.00525V1.43104C5.36649 1.04551 5.52548 0.679625 5.80222 0.412772ZM11.1596 8.5461V5.2931C11.1596 5.18477 11.1151 5.07703 11.0297 4.99468C10.9437 4.91173 10.8233 4.86206 10.6941 4.86206C10.5649 4.86206 10.4444 4.91173 10.3584 4.99468C10.2737 5.07633 10.2293 5.18295 10.2286 5.29035V6.13219H9.22856V6H9.22855V5.2931C9.22855 5.29137 9.22856 5.28965 9.22856 5.28793V2.71839C9.22856 2.61006 9.1841 2.50232 9.0987 2.41997C9.01268 2.33702 8.89225 2.28735 8.76304 2.28735C8.63383 2.28735 8.51341 2.33702 8.42738 2.41997C8.3427 2.50163 8.29828 2.60824 8.29753 2.71564V4.84484H8.29752V6.29311H7.29752V2.71839L7.29753 2.71322V1.43104C7.29753 1.32271 7.25307 1.21497 7.16767 1.13262C7.08165 1.04967 6.96123 1 6.83201 1C6.7028 1 6.58238 1.04967 6.49635 1.13262C6.41095 1.21497 6.36649 1.32271 6.36649 1.43104V3.35702L6.3665 3.36219V6.29323H5.3665V4.84484H5.36649V3.35944C5.36575 3.25204 5.32132 3.14543 5.23664 3.06377C5.15062 2.98082 5.03019 2.93115 4.90098 2.93115C4.77177 2.93115 4.65135 2.98082 4.56532 3.06377C4.47992 3.14612 4.43546 3.25386 4.43546 3.36219V4.36219H4.43542V8.73754C4.43542 9.34531 3.71407 9.66433 3.26445 9.2554L1.78598 7.91079L1.77761 7.90241C1.70101 7.82581 1.59339 7.78107 1.47477 7.78322C1.35528 7.78539 1.23501 7.83543 1.14365 7.92679C1.05228 8.01816 1.00225 8.13843 1.00007 8.25791C0.997917 8.37654 1.04266 8.48415 1.11926 8.56076L3.15982 10.6013C3.43349 10.875 3.67676 11.1774 3.88541 11.5034L4.01834 11.7111C4.73875 12.8365 5.98293 13.5173 7.3192 13.5173H7.44668C8.85302 13.5173 10.1387 12.7228 10.7676 11.4649C11.0254 10.9494 11.1596 10.3809 11.1596 9.80444L11.1596 8.5461H11.1596Z" fill="#292929"/>
</svg>
