<svg width="20" height="20" viewBox="0 0 20 20" fill="none" xmlns="http://www.w3.org/2000/svg">
<g clip-path="url(#clip0_2010_24723)">
<path d="M11.84 6.76923H14.544C12.828 4.02308 9.292 3.26923 6.64 5.04615C5.028 6.12308 4.04 8.00769 4.04 10H3C3 6.12308 6.016 3 9.76 3C11.788 3 13.66 3.91538 14.96 5.53077V3.53846H16V7.84615H11.84V6.76923Z" fill="#292929"/>
<path d="M8.16 13.2308L5.456 13.2308C7.172 15.9769 10.708 16.7308 13.36 14.9538C14.972 13.8769 15.96 11.9923 15.96 10L17 10C17 13.8769 13.984 17 10.24 17C8.212 17 6.34 16.0846 5.04 14.4692L5.04 16.4615L4 16.4615L4 12.1538L8.16 12.1538L8.16 13.2308Z" fill="#292929"/>
</g>
<defs>
<clipPath id="clip0_2010_24723">
<rect width="20" height="20" fill="white"/>
</clipPath>
</defs>
</svg>
