<svg width="24" height="24" viewBox="0 0 24 24" fill="none" xmlns="http://www.w3.org/2000/svg">
<path d="M9.52667 4.8356C9.60703 4.35341 10.0242 4 10.5131 4H11.4855C11.9743 4 12.3915 4.35341 12.4719 4.8356L12.6043 5.6301C12.6671 6.00723 12.9453 6.30967 13.2984 6.45628C13.6517 6.60295 14.0573 6.58336 14.3686 6.36104L15.0242 5.89274C15.422 5.60861 15.9669 5.65371 16.3125 5.99937L17.0001 6.68697C17.3458 7.03263 17.3909 7.57753 17.1067 7.97531L16.6383 8.63117C16.416 8.94233 16.3964 9.34785 16.543 9.70101C16.6896 10.054 16.992 10.3321 17.369 10.395L18.1637 10.5274C18.6459 10.6078 18.9993 11.025 18.9993 11.5138V12.4862C18.9993 12.975 18.6459 13.3922 18.1637 13.4726L17.3692 13.605C16.992 13.6679 16.6896 13.946 16.543 14.2991C16.3963 14.6524 16.4159 15.058 16.6382 15.3692L17.1064 16.0247C17.3906 16.4225 17.3455 16.9674 16.9998 17.3131L16.3122 18.0007C15.9666 18.3464 15.4217 18.3914 15.0239 18.1073L14.3682 17.639C14.057 17.4167 13.6515 17.3971 13.2983 17.5438C12.9453 17.6903 12.6671 17.9927 12.6043 18.3698L12.4719 19.1644C12.3915 19.6466 11.9743 20 11.4855 20H10.5131C10.0242 20 9.60703 19.6466 9.52667 19.1644L9.39425 18.3699C9.3314 17.9928 9.05324 17.6903 8.70014 17.5437C8.3469 17.3971 7.94127 17.4166 7.63002 17.639L6.97436 18.1073C6.57658 18.3914 6.03168 18.3463 5.68602 18.0007L4.99842 17.3131C4.65275 16.9674 4.60766 16.4225 4.89179 16.0247L5.36026 15.3689C5.58252 15.0577 5.60212 14.6522 5.4555 14.299C5.30893 13.946 5.00655 13.6679 4.62951 13.605L3.83487 13.4726C3.35268 13.3922 2.99927 12.975 2.99927 12.4862V11.5138C2.99927 11.025 3.35268 10.6078 3.83487 10.5274L4.62936 10.395C5.0065 10.3321 5.30894 10.054 5.45555 9.70086C5.60223 9.3476 5.58264 8.94195 5.36031 8.6307L4.89214 7.97526C4.60801 7.57747 4.6531 7.03257 4.99876 6.68691L5.68636 5.99931C6.03203 5.65365 6.57692 5.60855 6.97471 5.89268L7.63035 6.361C7.94153 6.58327 8.34707 6.60286 8.70025 6.45623C9.05329 6.30966 9.33139 6.00728 9.39423 5.63022L9.52667 4.8356Z" stroke="#0F172A" stroke-linecap="round" stroke-linejoin="round"/>
<path d="M13.6666 12C13.6666 13.4728 12.4726 14.6667 10.9999 14.6667C9.52713 14.6667 8.33322 13.4728 8.33322 12C8.33322 10.5273 9.52713 9.33335 10.9999 9.33335C12.4726 9.33335 13.6666 10.5273 13.6666 12Z" stroke="#0F172A" stroke-linecap="round" stroke-linejoin="round"/>
</svg>
