<svg width="20" height="20" viewBox="0 0 20 20" fill="none" xmlns="http://www.w3.org/2000/svg">
<g clip-path="url(#clip0_655_1249)">
<path fill-rule="evenodd" clip-rule="evenodd" d="M8.80222 2.41277C9.07834 2.14652 9.44908 2 9.83201 2C10.2149 2 10.5857 2.14652 10.8618 2.41277C11.122 2.66365 11.2781 3.00205 11.2958 3.36201C11.4454 3.31289 11.6032 3.28735 11.763 3.28735C12.146 3.28735 12.5167 3.43387 12.7928 3.70013C13.0696 3.96698 13.2286 4.33287 13.2286 4.71839V5.93616C13.3777 5.8874 13.5348 5.86206 13.6941 5.86206C14.077 5.86206 14.4477 6.00858 14.7239 6.27483C15.0006 6.54169 15.1596 6.90757 15.1596 7.2931V10.7069H15.1596V11.8044C15.1596 12.5361 14.9892 13.2577 14.662 13.9121C13.8637 15.5088 12.2318 16.5173 10.4467 16.5173L10.3192 16.5173C8.64197 16.5173 7.08033 15.6628 6.17611 14.2502L6.04318 14.0425C5.87339 13.7772 5.67542 13.5311 5.45272 13.3084L3.41216 11.2679C3.13955 10.9953 2.99325 10.6241 3.00024 10.2397C3.00721 9.85622 3.16577 9.49046 3.43654 9.21969C3.70731 8.94891 4.07307 8.79036 4.45659 8.78339C4.83659 8.77648 5.20366 8.91939 5.47537 9.18605L6.43542 10.0592V6.36218H6.43546V5.36219C6.43546 4.97667 6.59445 4.61078 6.87119 4.34392C7.14731 4.07767 7.51805 3.93115 7.90098 3.93115C8.06024 3.93115 8.21738 3.95649 8.36649 4.00525V3.43104C8.36649 3.04551 8.52548 2.67963 8.80222 2.41277ZM14.1596 10.5461V7.2931C14.1596 7.18477 14.1151 7.07703 14.0297 6.99468C13.9437 6.91173 13.8233 6.86206 13.6941 6.86206C13.5649 6.86206 13.4444 6.91173 13.3584 6.99468C13.2737 7.07633 13.2293 7.18295 13.2286 7.29035V8.13219H12.2286V8H12.2286V7.2931C12.2286 7.29137 12.2286 7.28965 12.2286 7.28793V4.71839C12.2286 4.61006 12.1841 4.50232 12.0987 4.41997C12.0127 4.33702 11.8923 4.28735 11.763 4.28735C11.6338 4.28735 11.5134 4.33702 11.4274 4.41997C11.3427 4.50163 11.2983 4.60824 11.2975 4.71564V6.84484H11.2975V8.29311H10.2975V4.71839L10.2975 4.71322V3.43104C10.2975 3.32271 10.2531 3.21497 10.1677 3.13262C10.0816 3.04967 9.96123 3 9.83201 3C9.7028 3 9.58238 3.04967 9.49635 3.13262C9.41095 3.21497 9.36649 3.32271 9.36649 3.43104V5.35702L9.3665 5.36219V8.29323H8.3665V6.84484H8.36649V5.35944C8.36575 5.25204 8.32132 5.14543 8.23664 5.06377C8.15062 4.98082 8.03019 4.93115 7.90098 4.93115C7.77177 4.93115 7.65135 4.98082 7.56532 5.06377C7.47992 5.14612 7.43546 5.25386 7.43546 5.36219V6.36219H7.43542V10.7375C7.43542 11.3453 6.71407 11.6643 6.26445 11.2554L4.78598 9.91079L4.77761 9.90241C4.70101 9.82581 4.59339 9.78107 4.47477 9.78322C4.35528 9.78539 4.23501 9.83543 4.14365 9.92679C4.05228 10.0182 4.00225 10.1384 4.00007 10.2579C3.99792 10.3765 4.04266 10.4842 4.11926 10.5608L6.15982 12.6013C6.43349 12.875 6.67676 13.1774 6.88541 13.5034L7.01834 13.7111C7.73875 14.8365 8.98293 15.5173 10.3192 15.5173H10.4467C11.853 15.5173 13.1387 14.7228 13.7676 13.4649C14.0254 12.9494 14.1596 12.3809 14.1596 11.8044L14.1596 10.5461H14.1596Z" fill="#292929"/>
<path d="M19 15.6429H19.5V15.1429V13.8571V13.3571H19H18.0332C17.972 13.1692 17.8958 12.9866 17.8053 12.8108L18.4902 12.126L18.8437 11.7724L18.4902 11.4189L17.5812 10.5099L17.2276 10.1563L16.8741 10.5099L16.1892 11.1947C16.0135 11.1042 15.8308 11.028 15.6429 10.9668V10V9.5H15.1429H13.8571H13.3571V10V10.9668C13.1692 11.028 12.9866 11.1042 12.8108 11.1947L12.126 10.5098L11.7724 10.1563L11.4189 10.5098L10.5099 11.4188L10.1563 11.7724L10.5099 12.1259L11.1947 12.8108C11.1042 12.9865 11.028 13.1692 10.9668 13.3571H10H9.5V13.8571V15.1429V15.6429H10H10.9668C11.028 15.8308 11.1042 16.0134 11.1947 16.1892L10.5098 16.874L10.1563 17.2276L10.5098 17.5811L11.4188 18.4901L11.7724 18.8437L12.1259 18.4901L12.8108 17.8053C12.9865 17.8958 13.1692 17.972 13.3571 18.0332V19V19.5H13.8571H15.1429H15.6429V19V18.0332C15.8308 17.972 16.0134 17.8958 16.1892 17.8053L16.874 18.4902L17.2276 18.8437L17.5811 18.4902L18.4901 17.5812L18.8437 17.2276L18.4901 16.8741L17.8053 16.1892C17.8958 16.0135 17.972 15.8308 18.0332 15.6429H19ZM14.4998 15.9286C14.2174 15.9285 13.9412 15.8448 13.7063 15.6878C13.4714 15.5308 13.2883 15.3077 13.1802 15.0467C13.072 14.7857 13.0438 14.4984 13.0989 14.2213C13.154 13.9442 13.2901 13.6896 13.4898 13.4898C13.6896 13.2901 13.9442 13.154 14.2213 13.0989C14.4984 13.0438 14.7857 13.072 15.0467 13.1802C15.3077 13.2883 15.5308 13.4714 15.6878 13.7063C15.8448 13.9412 15.9285 14.2174 15.9286 14.4998C15.9281 14.8786 15.7774 15.2417 15.5095 15.5095C15.2417 15.7774 14.8786 15.9281 14.4998 15.9286Z" fill="#292929" stroke="#DDDDD9"/>
<circle cx="14.5" cy="14.5" r="1.5" fill="#DDDDD9"/>
<rect x="9" y="16" width="2" height="1" fill="#DDDDD9"/>
</g>
<defs>
<clipPath id="clip0_655_1249">
<rect width="20" height="20" fill="white"/>
</clipPath>
</defs>
</svg>
