<svg width="20" height="20" viewBox="0 0 20 20" fill="none" xmlns="http://www.w3.org/2000/svg">
<g clip-path="url(#clip0_322_14880)">
<path d="M10 17.0001C10.6902 16.9989 11.3683 16.8192 11.9685 16.4783C12.5687 16.1375 13.0704 15.6472 13.425 15.0551L12.57 14.5551C12.3032 14.9982 11.9263 15.3647 11.476 15.6192C11.0257 15.8737 10.5173 16.0074 10 16.0074C9.48277 16.0074 8.97432 15.8737 8.52401 15.6192C8.0737 15.3647 7.69684 14.9982 7.43001 14.5551L6.57501 15.0551C6.92959 15.6472 7.43136 16.1375 8.03152 16.4783C8.63169 16.8192 9.30983 16.9989 10 17.0001Z" fill="#292929"/>
<path d="M10 6C8.61553 6 7.26216 6.41054 6.11101 7.17971C4.95987 7.94888 4.06266 9.04213 3.53285 10.3212C3.00303 11.6003 2.86441 13.0078 3.13451 14.3656C3.4046 15.7235 4.07129 16.9708 5.05026 17.9497C6.02922 18.9287 7.2765 19.5954 8.63437 19.8655C9.99224 20.1356 11.3997 19.997 12.6788 19.4672C13.9579 18.9373 15.0511 18.0401 15.8203 16.889C16.5895 15.7378 17 14.3845 17 13C17 11.1435 16.2625 9.36301 14.9497 8.05025C13.637 6.7375 11.8565 6 10 6ZM10 7C11.1472 7.00179 12.2699 7.33244 13.235 7.95277C14.2 8.5731 14.967 9.4571 15.445 10.5H14.5C14.5 10.3674 14.4473 10.2402 14.3536 10.1464C14.2598 10.0527 14.1326 10 14 10H6C5.86739 10 5.74022 10.0527 5.64645 10.1464C5.55268 10.2402 5.5 10.3674 5.5 10.5H4.555C5.03301 9.4571 5.8 8.5731 6.76505 7.95277C7.73011 7.33244 8.85277 7.00179 10 7ZM10 19C8.4087 19 6.88258 18.3679 5.75736 17.2426C4.63214 16.1174 4 14.5913 4 13C4.00234 12.4935 4.06955 11.9894 4.2 11.5H5.5V12.5C5.5 12.7652 5.60536 13.0196 5.7929 13.2071C5.98043 13.3946 6.23479 13.5 6.5 13.5H8.155C8.39396 13.5033 8.62619 13.4209 8.80963 13.2677C8.99307 13.1145 9.11559 12.9007 9.155 12.665L9.415 11H10.585L10.86 12.665C10.8994 12.9007 11.0219 13.1145 11.2054 13.2677C11.3888 13.4209 11.621 13.5033 11.86 13.5H13.5C13.7652 13.5 14.0196 13.3946 14.2071 13.2071C14.3946 13.0196 14.5 12.7652 14.5 12.5V11.5H15.8C15.9305 11.9894 15.9977 12.4935 16 13C16 14.5913 15.3679 16.1174 14.2426 17.2426C13.1174 18.3679 11.5913 19 10 19Z" fill="#292929"/>
</g>
<defs>
<clipPath id="clip0_322_14880">
<rect width="20" height="20" fill="white"/>
</clipPath>
</defs>
</svg>
