<svg width="140" height="46" viewBox="0 0 140 46" fill="none" xmlns="http://www.w3.org/2000/svg">
<path fill-rule="evenodd" clip-rule="evenodd" d="M31.4349 16.42C30.4577 17.2763 29.2811 17.9859 27.9398 18.5358C31.0131 20.6794 33.0768 23.1002 34.0825 25.7465C35.2976 28.9432 34.9423 32.4214 33.028 36.0829C30.7641 40.4144 27.3167 43.3565 23.0598 44.591C21.5908 45.0169 20.0537 45.2286 18.4955 45.2286C16.0223 45.2286 13.4948 44.6965 11.0922 43.646C6.95778 41.838 3.63695 38.711 1.74131 34.8411C-0.391195 30.486 -0.568836 25.5202 1.22947 20.4805C1.34952 20.1431 1.72103 19.9671 2.05846 20.0871C2.3959 20.2072 2.57192 20.5787 2.45187 20.9161C0.774421 25.6183 0.931783 30.2362 2.90692 34.27C4.66711 37.8642 7.75919 40.7722 11.6121 42.4569C15.2509 44.0484 19.1882 44.3639 22.6989 43.3451C26.6078 42.2111 29.7818 39.4922 31.8786 35.4827C33.6144 32.1635 33.9478 29.043 32.8698 26.208C31.877 23.5945 29.7039 21.1952 26.4082 19.0716C25.3529 19.3847 24.2173 19.6102 23.0152 19.7448C20.5802 20.0174 17.9472 19.9217 15.1503 19.4618C15.4918 21.4077 15.9907 23.4867 16.6445 25.6889C16.7467 26.0328 16.5512 26.3938 16.2073 26.496C15.8633 26.5982 15.5024 26.4027 15.4002 26.0588C14.6799 23.6318 14.1429 21.3452 13.7925 19.2127C12.8142 19.0148 11.8174 18.7739 10.8026 18.49C9.51694 18.1136 8.67011 17.3455 8.47219 16.3786C8.29698 15.522 8.65307 14.6533 9.45043 13.9963C10.0645 13.4909 11.2163 12.8817 13.2174 12.8558H13.309C13.3163 12.6149 13.3269 12.3764 13.3407 12.1412C13.657 6.8014 15.7392 3.14151 19.5297 1.26371C22.8879 -0.410492 26.6216 -0.421849 29.7712 1.2337C32.4026 2.61589 34.1952 5.00877 34.5667 7.63444C34.8149 9.38814 34.6641 11.0413 34.119 12.5467C33.5828 14.0263 32.68 15.329 31.4349 16.42ZM11.1595 17.2433C10.3695 17.0121 9.84059 16.5919 9.74325 16.1182C9.66701 15.7475 9.86168 15.3395 10.2754 14.998C11.0078 14.3937 12.0583 14.1528 13.2336 14.1528H13.3026C13.3253 15.32 13.421 16.5506 13.5897 17.8427C12.7907 17.6724 11.9796 17.472 11.1595 17.2425V17.2433ZM14.9346 18.1047C14.7423 16.7485 14.6312 15.462 14.6028 14.2493C16.054 14.4416 17.5757 14.9023 18.8589 15.436C18.9684 15.4815 19.1258 15.5415 19.3432 15.6234L19.3461 15.6245C20.3563 16.0078 22.5105 16.8252 24.85 18.1363C21.9997 18.7528 18.6147 18.7496 14.9354 18.1047H14.9346ZM19.8031 14.4099L19.7674 14.3964L19.7673 14.3964C19.5856 14.3274 19.4423 14.273 19.3578 14.238C17.6552 13.529 16.0629 13.091 14.6044 12.928C14.6109 12.6879 14.6215 12.451 14.6353 12.2174C14.9224 7.3765 16.7621 4.08244 20.1064 2.42527C23.089 0.938442 26.3912 0.92303 29.1669 2.38147C31.43 3.57061 32.968 5.60253 33.2811 7.81533C33.7142 10.8774 32.7806 13.5144 30.5791 15.4425C29.4922 16.3948 28.1481 17.1338 26.5972 17.657C23.759 15.9097 20.9995 14.8626 19.8031 14.4091V14.4099ZM125.018 22.8808C125.127 22.5393 125.492 22.3503 125.834 22.459L125.835 22.4549C126.177 22.5636 126.366 22.9286 126.257 23.2701C125.104 26.8992 123.049 28.76 120.872 30.7294L120.858 30.7423C120.375 31.1786 119.888 31.6198 119.4 32.0881V40.1314C119.403 40.451 119.389 43.3468 118.028 44.7192C117.561 45.1905 116.97 45.4395 116.32 45.4395C115.061 45.4395 113.936 44.7452 113.314 43.5828C112.224 41.5493 112.828 38.5359 114.97 35.3148C115.992 33.7785 117.063 32.574 118.103 31.5422V26.8148C117.843 27.4994 117.549 28.0859 117.219 28.5693C116.416 29.7496 115.405 30.3474 114.213 30.3474C113.262 30.3474 112.497 30.031 111.939 29.4073C110.539 27.8407 110.889 24.7318 111.144 22.46L111.144 22.4599L111.145 22.4574C111.231 21.6973 111.311 20.9795 111.284 20.6031C111.192 19.315 110.595 18.5525 109.648 18.5128C108.447 18.4625 107.693 19.1495 107.347 20.6144C107.295 20.8336 107.24 21.1025 107.177 21.4108L107.157 21.5108C106.575 24.379 105.365 30.3474 100.478 30.3474C99.1947 30.3474 98.1159 29.8729 97.2731 28.936C97.2107 28.867 97.1498 28.7957 97.0914 28.7227C96.1132 29.7942 94.9914 30.3474 93.7519 30.3474C92.5125 30.3474 91.5651 29.5768 90.9357 28.0567C90.44 26.8595 90.1643 25.2972 89.8982 23.786C89.3539 20.6988 88.8648 18.5136 87.5126 18.5136C85.7841 18.5136 84.9389 21.7841 84.5884 23.7333C84.1788 26.0142 84.092 28.3292 84.0742 29.1193L84.0693 29.4129C84.0636 29.7698 83.77 30.0554 83.4139 30.0505C83.0578 30.0464 82.7707 29.7561 82.7723 29.3991C82.7723 29.3756 82.7731 29.2475 82.778 29.0349C82.898 20.0604 81.27 18.7245 80.0274 18.5063C78.5162 18.241 77.5899 19.839 77.581 19.8552C77.4869 20.0231 75.3552 23.7641 71.7715 25.0538C71.1234 27.9107 68.5659 30.0505 65.516 30.0505C62.7289 30.0505 60.3522 28.2644 59.4689 25.7766C58.5361 27.8288 56.887 30.3628 54.4374 30.3628C53.6668 30.3628 52.9724 30.0456 52.3722 29.4194C51.3461 28.3479 50.5844 26.3095 50.0961 23.3366C49.2834 24.0253 48.3157 24.6564 47.2093 25.0547C46.5612 27.9115 44.0036 30.0513 40.9537 30.0513C37.4155 30.0513 34.5375 27.1726 34.5375 23.6352C34.5375 20.9746 36.1647 18.688 38.4765 17.717C38.5049 17.7024 38.5349 17.6911 38.5657 17.6813C39.3038 17.3845 40.1093 17.219 40.9529 17.219C44.4733 17.219 47.339 20.0685 47.3674 23.5824C48.3416 23.1201 49.1868 22.4501 49.8739 21.7719C49.7668 20.8886 49.68 19.9388 49.6135 18.9224C49.3539 14.9616 49.5016 11.3739 49.5032 11.3382C49.5048 11.2733 49.5608 9.52447 49.8917 7.50147C50.3508 4.69329 51.1019 2.80089 52.124 1.87699C52.6748 1.37814 53.3018 1.15102 53.9864 1.19887C54.5015 1.23538 55.2217 1.48926 55.7222 2.49022C57.4654 5.97571 55.2428 16.3876 53.0089 19.8714C52.9108 20.0426 52.296 21.0898 51.2398 22.2351C51.7679 26.1221 52.6188 27.802 53.3083 28.5215C53.6587 28.8873 54.0269 29.065 54.4357 29.065C55.9615 29.065 57.1482 27.4402 57.875 26.0775C58.6464 24.6304 59.0698 23.1728 59.1396 22.923C59.4008 20.5723 60.9363 18.6004 63.0379 17.717C63.0671 17.7032 63.098 17.6911 63.1288 17.6813C63.8669 17.3845 64.6716 17.219 65.5152 17.219C69.0355 17.219 71.9013 20.0694 71.9297 23.5832C74.7054 22.2667 76.4299 19.2525 76.4494 19.2177C76.507 19.1171 77.8478 16.8077 80.2504 17.2287C81.6188 17.4688 82.58 18.4373 83.1868 20.1886C83.3652 20.7029 83.5161 21.2934 83.641 21.9642C84.4432 18.8121 85.7419 17.2166 87.5118 17.2166C88.6872 17.2166 89.5859 17.9612 90.1829 19.4302C90.6501 20.5812 90.9178 22.0964 91.1758 23.5621C91.7419 26.7759 92.2578 29.0512 93.7511 29.0512C94.7959 29.0512 95.6646 28.459 96.3736 27.5806C94.8875 24.5453 95.3288 20.1229 95.3345 20.071C95.414 19.319 95.723 18.6628 96.2284 18.1753C96.6964 17.7235 97.2999 17.464 97.8839 17.464C99.0146 17.464 100.235 18.5947 100.235 20.4222C100.235 21.2074 99.8315 23.6076 98.8597 25.8528C98.5685 26.5261 98.2514 27.1263 97.9107 27.6519C98.0121 27.8012 98.1208 27.9407 98.2368 28.0697C98.8313 28.7308 99.5646 29.052 100.477 29.052C104.303 29.052 105.331 23.9799 105.883 21.2552C105.956 20.8935 106.02 20.5812 106.082 20.3184C106.746 17.5167 108.635 17.1744 109.701 17.219C110.981 17.2733 112.408 18.1672 112.577 20.5131C112.612 21.0087 112.533 21.7135 112.433 22.6058L112.432 22.6086C112.217 24.5229 111.893 27.4124 112.906 28.5458C113.211 28.8873 113.637 29.0528 114.211 29.0528C117.281 29.0528 118.1 22.0202 118.1 17.8655C118.1 17.5069 118.39 17.2166 118.749 17.2166C119.108 17.2166 119.398 17.5069 119.398 17.8655V30.3166C119.573 30.1564 119.746 29.9993 119.917 29.8447L119.999 29.7707L119.999 29.7706C122.131 27.8417 123.972 26.1756 125.018 22.8808ZM46.0509 24.048C46.0615 23.9126 46.0688 23.7763 46.0688 23.6384C46.0688 20.8164 43.7724 18.5201 40.9505 18.5201C40.338 18.5201 39.7508 18.6288 39.2065 18.8267C39.1027 19.0416 38.9396 19.461 38.9421 19.9801C38.9461 20.9949 39.561 21.9358 40.7688 22.7761C42.5484 24.014 44.3256 24.4422 46.0509 24.048ZM35.8321 23.6384C35.8321 26.4604 38.1285 28.7567 40.9505 28.7567H40.9496C43.1446 28.7567 45.0208 27.368 45.7468 25.4229C43.8438 25.6906 41.9222 25.1601 40.0274 23.8412C37.9817 22.4168 37.5785 20.8732 37.6596 19.7222C36.5435 20.6623 35.8321 22.0688 35.8321 23.6384ZM50.7976 11.3938C50.7922 11.5298 50.6545 15.0133 50.9073 18.8526L50.9065 18.8534C50.9438 19.4196 50.9868 19.955 51.0346 20.4603C51.5781 19.7595 51.8766 19.2371 51.8847 19.2225C51.8912 19.2112 51.8977 19.199 51.905 19.1885C54.0902 15.8019 55.985 5.92704 54.559 3.07505C54.2849 2.52591 53.9994 2.50563 53.8923 2.49833C53.8639 2.4959 53.8355 2.49509 53.8079 2.49509C53.5151 2.49509 53.2539 2.60702 52.9919 2.84388C51.3599 4.31935 50.8545 9.51311 50.7978 11.3901L50.7976 11.3938ZM70.6132 24.0488C70.6238 23.9134 70.6311 23.7771 70.6311 23.6392L70.6303 23.64C70.6303 20.818 68.3339 18.5217 65.5119 18.5217C64.9003 18.5217 64.3131 18.6296 63.7688 18.8275C63.6641 19.0449 63.5019 19.4634 63.5043 19.9809C63.5084 20.9957 64.1233 21.9366 65.331 22.777C67.1107 24.0148 68.8879 24.4431 70.6132 24.0488ZM60.3944 23.6392C60.3944 26.4609 62.6903 28.7571 65.5119 28.7575C67.7069 28.7575 69.5831 27.3689 70.309 25.4237C68.4061 25.6914 66.4845 25.1609 64.5897 23.842C62.544 22.4176 62.1408 20.874 62.2219 19.723C61.1058 20.6631 60.3944 22.0688 60.3944 23.6392ZM96.6242 20.2097C96.5115 21.2763 96.4709 24.0943 97.2293 26.2608V26.2616C98.4152 24.0269 98.936 21.1514 98.936 20.4254C98.936 19.3564 98.3292 18.765 97.8831 18.765C97.437 18.765 96.728 19.2241 96.6242 20.2097ZM117.103 43.8116C117.936 42.9729 118.105 40.8785 118.1 40.142V40.1411V33.4168C117.408 34.1752 116.721 35.0277 116.048 36.0392C113.394 40.03 114.049 42.2193 114.455 42.9753C114.854 43.7199 115.533 44.1474 116.318 44.1474C116.626 44.1474 116.876 44.0403 117.103 43.8116ZM136.859 3.05316C138.119 3.2673 139.015 3.84078 139.521 4.75657H139.522C140.879 7.2119 139.106 11.4745 137.23 15.9861C135.808 19.405 134.338 22.9408 134.79 24.7781C134.875 25.1212 134.669 25.4692 134.326 25.56C134.27 25.5746 134.214 25.5819 134.159 25.5819C133.876 25.5819 133.617 25.3953 133.535 25.1106C131.847 19.1771 131.04 14.3402 131.137 10.7347C131.216 7.84946 131.871 5.72345 133.087 4.41588C134.682 2.70031 136.645 3.0126 136.859 3.05316ZM133.863 21.2707C134.353 19.5226 135.179 17.5353 136.031 15.4872L136.03 15.488L136.03 15.4869C137.627 11.6456 139.437 7.29201 138.384 5.38439C138.074 4.82227 137.501 4.47834 136.634 4.33153L136.623 4.32913L136.61 4.32666C136.595 4.32341 136.463 4.29989 136.256 4.29989C135.759 4.29989 134.826 4.43616 134.016 5.32112C133.03 6.39913 132.497 8.24611 132.433 10.8093C132.365 13.5534 132.845 17.0616 133.863 21.2707ZM133.844 27.0971C133.844 26.7029 134.165 26.3825 134.559 26.3825C134.953 26.3825 135.274 26.7029 135.274 27.0971C135.274 27.4913 134.953 27.8117 134.559 27.8117C134.165 27.8117 133.844 27.4913 133.844 27.0971Z" fill="#292929"/>
</svg>
