<svg width="20" height="20" viewBox="0 0 20 20" fill="none" xmlns="http://www.w3.org/2000/svg">
<path d="M10 17.5C8.64026 17.5 7.31105 17.0968 6.18046 16.3414C5.04987 15.5859 4.16868 14.5122 3.64833 13.256C3.12798 11.9997 2.99183 10.6174 3.2571 9.28376C3.52238 7.95014 4.17716 6.72513 5.13864 5.76364C6.10013 4.80216 7.32514 4.14738 8.65876 3.8821C9.99238 3.61683 11.3747 3.75298 12.631 4.27333C13.8872 4.79368 14.9609 5.67487 15.7164 6.80546C16.4718 7.93605 16.875 9.26526 16.875 10.625C16.875 12.4484 16.1507 14.1971 14.8614 15.4864C13.5721 16.7757 11.8234 17.5 10 17.5ZM10 5C8.88748 5 7.79995 5.3299 6.87492 5.94799C5.94989 6.56607 5.22892 7.44457 4.80318 8.47241C4.37744 9.50024 4.26604 10.6312 4.48309 11.7224C4.70013 12.8135 5.23586 13.8158 6.02253 14.6025C6.8092 15.3891 7.81148 15.9249 8.90262 16.1419C9.99376 16.359 11.1248 16.2476 12.1526 15.8218C13.1804 15.3961 14.0589 14.6751 14.677 13.7501C15.2951 12.8251 15.625 11.7375 15.625 10.625C15.625 9.13316 15.0324 7.70242 13.9775 6.64753C12.9226 5.59264 11.4918 5 10 5Z" fill="#292929"/>
<path d="M11.6188 13.125L9.375 10.8812V6.875H10.625V10.3625L12.5 12.2438L11.6188 13.125Z" fill="#292929"/>
<path d="M4.73854 2.50201L2.50024 4.745L3.38505 5.62795L5.62335 3.38496L4.73854 2.50201Z" fill="#292929"/>
<path d="M15.2596 2.49644L14.3748 3.37939L16.6131 5.62238L17.4979 4.73943L15.2596 2.49644Z" fill="#292929"/>
</svg>
