<svg width="20" height="20" viewBox="0 0 20 20" fill="none" xmlns="http://www.w3.org/2000/svg">
<g clip-path="url(#clip0_322_14997)">
<path d="M10 6C8.61553 6 7.26215 6.41054 6.11101 7.17971C4.95987 7.94888 4.06266 9.04213 3.53285 10.3212C3.00303 11.6003 2.86441 13.0078 3.13451 14.3656C3.4046 15.7235 4.07129 16.9708 5.05026 17.9497C6.02922 18.9287 7.2765 19.5954 8.63437 19.8655C9.99224 20.1356 11.3997 19.997 12.6788 19.4672C13.9579 18.9373 15.0511 18.0401 15.8203 16.889C16.5895 15.7378 17 14.3845 17 13C17 11.1435 16.2625 9.36301 14.9497 8.05025C13.637 6.7375 11.8565 6 10 6ZM10 19C8.81331 19 7.65328 18.6481 6.66658 17.9888C5.67989 17.3295 4.91085 16.3925 4.45673 15.2961C4.0026 14.1997 3.88378 12.9933 4.11529 11.8295C4.3468 10.6656 4.91825 9.59647 5.75736 8.75736C6.59648 7.91824 7.66557 7.3468 8.82946 7.11529C9.99335 6.88378 11.1997 7.0026 12.2961 7.45672C13.3925 7.91085 14.3295 8.67988 14.9888 9.66658C15.6481 10.6533 16 11.8133 16 13C16 14.5913 15.3679 16.1174 14.2426 17.2426C13.1174 18.3679 11.5913 19 10 19Z" fill="#292929"/>
<path d="M12.5 11C12.2033 11 11.9133 11.0586 11.6666 11.1685C11.42 11.2784 11.2277 11.4346 11.1142 11.6173C11.0007 11.8 10.9709 12.0011 11.0288 12.1951C11.0867 12.3891 11.2296 12.5673 11.4393 12.7071C11.6491 12.847 11.9164 12.9422 12.2074 12.9808C12.4983 13.0194 12.7999 12.9996 13.074 12.9239C13.3481 12.8482 13.5824 12.72 13.7472 12.5556C13.912 12.3911 14 12.1978 14 12C14 11.7348 13.842 11.4804 13.5607 11.2929C13.2794 11.1054 12.8978 11 12.5 11Z" fill="#292929"/>
<path d="M9 12H6V13H9V12Z" fill="#292929"/>
<path d="M10 17C10.6045 16.999 11.1985 16.852 11.7242 16.5732C12.2499 16.2944 12.6894 15.8934 13 15.409L12.2511 15C12.0174 15.3625 11.6873 15.6623 11.2928 15.8705C10.8984 16.0787 10.4531 16.188 10 16.188C9.54694 16.188 9.10158 16.0787 8.70715 15.8705C8.31272 15.6623 7.98262 15.3625 7.74891 15L7 15.409C7.31058 15.8934 7.75009 16.2944 8.27578 16.5732C8.80147 16.852 9.39546 16.999 10 17Z" fill="#292929"/>
</g>
<defs>
<clipPath id="clip0_322_14997">
<rect width="20" height="20" fill="white"/>
</clipPath>
</defs>
</svg>
