{
  "accessors": [
    {
      "bufferView": 2,
      "componentType": 5126,
      "count": 164,
      "max": [
        89.598388671875,
        89.598388671875,
        89.598388671875
      ],
      "min": [
        -89.598388671875,
        -89.598388671875,
        -89.598388671875
      ],
      "type": "VEC3"
    },
    {
      "bufferView": 2,
      "byteOffset": 1968,
      "componentType": 5126,
      "count": 164,
      "max": [
        0.99964314699172974,
        0.99964314699172974,
        0.99964314699172974
      ],
      "min": [
        -0.99964314699172974,
        -0.99964314699172974,
        -0.99964314699172974
      ],
      "type": "VEC3"
    },
    {
      "bufferView": 3,
      "componentType": 5126,
      "count": 164,
      "max": [
        0.99448758363723755,
        0.9039156436920166,
        0.99991345405578613,
        1
      ],
      "min": [
        -0.54950976371765137,
        -0.85065090656280518,
        -0.99448752403259277,
        1
      ],
      "type": "VEC4"
    },
    {
      "bufferView": 1,
      "componentType": 5126,
      "count": 164,
      "max": [
        0.99418306350708008,
        0.83451223373413086
      ],
      "min": [
        0.009494781494140625,
        0.022546887397766113
      ],
      "type": "VEC2"
    },
    {
      "bufferView": 1,
      "byteOffset": 1312,
      "componentType": 5126,
      "count": 164,
      "max": [
        0.99418306350708008,
        0.83451223373413086
      ],
      "min": [
        0.009494781494140625,
        0.022546887397766113
      ],
      "type": "VEC2"
    },
    {
      "bufferView": 0,
      "componentType": 5125,
      "count": 780,
      "max": [
        163
      ],
      "min": [
        0
      ],
      "type": "SCALAR"
    }
  ],
  "asset": {
    "extras": {
      "author": "Andough (https://sketchfab.com/andough)",
      "license": "CC-BY-4.0 (http://creativecommons.org/licenses/by/4.0/)",
      "source": "https://sketchfab.com/3d-models/d20-38f5c3b1f7fa46ea840e91d05be96e5c",
      "title": "D20"
    },
    "generator": "Sketchfab-4.86.2",
    "version": "2.0"
  },
  "bufferViews": [
    {
      "buffer": 0,
      "byteLength": 3120,
      "byteOffset": 0,
      "name": "floatBufferViews",
      "target": 34963
    },
    {
      "buffer": 0,
      "byteLength": 2624,
      "byteOffset": 3120,
      "byteStride": 8,
      "name": "floatBufferViews",
      "target": 34962
    },
    {
      "buffer": 0,
      "byteLength": 3936,
      "byteOffset": 5744,
      "byteStride": 12,
      "name": "floatBufferViews",
      "target": 34962
    },
    {
      "buffer": 0,
      "byteLength": 2624,
      "byteOffset": 9680,
      "byteStride": 16,
      "name": "floatBufferViews",
      "target": 34962
    }
  ],
  "buffers": [
    {
      "byteLength": 12304,
      "uri": "scene.bin"
    }
  ],
  "extensionsRequired": [
    "KHR_materials_pbrSpecularGlossiness"
  ],
  "extensionsUsed": [
    "KHR_materials_pbrSpecularGlossiness"
  ],
  "images": [
    {
      "uri": "textures/material_diffuse.png"
    }
  ],
  "materials": [
    {
      "doubleSided": true,
      "emissiveFactor": [
        0,
        0,
        0
      ],
      "extensions": {
        "KHR_materials_pbrSpecularGlossiness": {
          "diffuseFactor": [
            1,
            1,
            1,
            1
          ],
          "diffuseTexture": {
            "index": 0,
            "texCoord": 0
          },
          "glossinessFactor": 1,
          "specularFactor": [
            0.14999999999999999,
            0.14999999999999999,
            0.14999999999999999
          ]
        }
      },
      "name": "material"
    }
  ],
  "meshes": [
    {
      "name": "pSolid1_Die_0",
      "primitives": [
        {
          "attributes": {
            "NORMAL": 1,
            "POSITION": 0,
            "TANGENT": 2,
            "TEXCOORD_0": 3,
            "TEXCOORD_1": 4
          },
          "indices": 5,
          "material": 0,
          "mode": 4
        }
      ]
    }
  ],
  "nodes": [
    {
      "children": [
        1
      ],
      "name": "RootNode (gltf orientation matrix)",
      "rotation": [
        -0.70710678118654746,
        -0,
        -0,
        0.70710678118654757
      ]
    },
    {
      "children": [
        2
      ],
      "name": "RootNode (model correction matrix)"
    },
    {
      "children": [
        3
      ],
      "matrix": [
        1,
        0,
        0,
        0,
        0,
        0,
        1,
        0,
        0,
        -1,
        0,
        0,
        0,
        0,
        0,
        1
      ],
      "name": "b5901988a030428a91a1ea03edcb69bf.fbx"
    },
    {
      "children": [
        4
      ],
      "name": "RootNode"
    },
    {
      "children": [
        5
      ],
      "name": "pSolid1"
    },
    {
      "mesh": 0,
      "name": "pSolid1_Die_0"
    }
  ],
  "samplers": [
    {
      "magFilter": 9729,
      "minFilter": 9987,
      "wrapS": 10497,
      "wrapT": 10497
    }
  ],
  "scene": 0,
  "scenes": [
    {
      "name": "OSG_Scene",
      "nodes": [
        0
      ]
    }
  ],
  "textures": [
    {
      "sampler": 0,
      "source": 0
    }
  ]
}

